<svg xmlns="http://www.w3.org/2000/svg" xml:space="preserve" baseProfile="tiny-ps" version="1.2" viewBox="0 0 1500 1500">
  <path d="M1501 718v67a754 754 0 0 1-698 714l-20 2h-66A751 751 0 0 1 2 798l-1-5v-84l9-75A745 745 0 0 1 713 1h70l81 8a730 730 0 0 1 411 205 746 746 0 0 1 225 501l1 3M157 640l-2 3c-4 6-6 11-4 19l1 9-1 5-2 4c-3 6-5 12-3 20v23l-1 6v13l-1 16v12l2 4v7l-1 22c0 7 0 14 5 21l1 4v7l-1 8 2 6-1 2a1128 1128 0 0 0 6 15v4l-1 6c0 4 1 8 5 12l1 1v2c0 6 1 11 4 16 3 7 3 15 7 22l8 20 4 11 15 24 2 3 3 6 13 16 11 14 16 16 10 7 12 9 14 8 17 7 1 2 9 3 13 4 3 1 30 3 19 2 48-4 14-3 13-3 7-2c8-3 14-7 22-9 6-1 11-4 16-7 4-4 9-9 9-17l2-68 1-18 2-61c0-6-3-12-9-15-9-4-20 2-22 13l-7 32-1 2c-6 9-2 20-9 28v2l-7 28-1 1-9 19h-1l-8 15-6 8-15 13-17 9h-2l-17 3c-7 1-14 3-21 1-3-2-7-2-11-3l-11-2-16-10-19-14-17-20-7-8-8-15-9-19-7-19-1-1a656 656 0 0 1-6-16l-3-10-2-10-4-13-2-10c-1-4-3-7-3-11l-3-22c0-7-3-13-3-19l-1-37-2-20-1-31 3-55c1-10 0-20 2-29 3-11 4-22 4-33l2-9 4-14 3-11 2-6 2-14 11-26 4-8 8-18a151 151 0 0 1 43-49l13-10 4-1 8-3 5-2c15-2 29-3 44 0l4-2 1 1 4 4 9 1 1 2c0 4 3 5 6 5l10 10 9 8 1 2c-2 4 0 3 3 2l2 6 2 2 2 6c-1 5 2 9 7 12l-1 2c-1 5 4 9 7 14l-1 2c-1 4 3 6 6 10l-1 2c0 6 1 13 7 18l-1 3c0 5-1 10 6 14l-1 1 2 3-1 4c-1 6 2 10 6 15v5c-1 5 4 6 6 9 3 4 8 5 12 4 3-2 6-7 8-10l-1-3v-1l2-6c2-4 2-9-2-12l1-34 1-2v-63l-2-4v-18c2-5-1-14-6-17-3-2-3-7-8-4h-1l-2-1v-2c-3-5-8-4-13-5l-1-1c-3-5-8-4-13-3h-1v-1c-3-3-7-7-13-4l-3 1v-2h-5l-1-1c-8-5-15-6-25-4a1130 1130 0 0 1-20-1h-9l-9-1-5 2h-5l-9-1c-9-1-17 1-24 7h-2l-4-1c-4 0-8 1-10 6h-1l-12 5-8 1-16 11-5 5-14 11c-4 2-8 5-10 10l-2 1-8 9h-1l-5 7-12 14-5 6-8 12c-2 3-4 6-3 10l-2 1c-4 0-4 3-3 7v2h-1c-5 2-6 5-5 10l-3 4-2 5v3l-1 1-2 2c-3 2-5 4-3 9l-3 6c-3 3-4 7-3 12v2l-1 1-2 2-2 7v3l-1 2v4l-1 1-1 1c-3 3-5 7-3 12v8m1183-178v-2l-1-4v-2c0-4-1-4-5-4v-1c0-3-1-5-5-4l-17-7a251 251 0 0 0-21-8l-10-2h-1l-5-2c-7-5-15-6-25-4l-9 1h-4l-9-1-21-1-1 2h-3l-4-1-8-1h-9c-3 1-7 0-8 6l-6 1h-2l-11 3-16 8c-10 2-18 9-27 15l-9 6-13 12-20 20-20 28-7 11-8 14-8 18-2 3-2 3c-3 8-7 15-7 23l-1 2-4 9-1 6c-4 4-4 9-5 13l-4 14-1 7c0 5 0 9-2 14-3 9-4 18-4 27v12c-2 15-5 30-5 45l4 59c2 17-1 34 6 51 3 8 1 18 6 27v4c1 5 0 11 5 15l1 5 7 26 1 2 9 20 8 17a358 358 0 0 0 43 59l15 15 18 13c6 4 11 9 19 11l4 2 3 2c8 2 16 7 25 7l1 1c4 4 11 4 17 4l7 1 30 3 55-5c6 0 12-4 19-6l16-4 5-1 12-5c6-1 10-5 14-9 2-3 7-3 5-9l1-2 1 1 5-7 1-17v-54l-1-6-1-3a752 752 0 0 1-1-27l1-38v-4l1-2c0-6-4-11-11-9l-5-1c-5 0-9 3-10 8l-2 7-4 12c-1 3 0 7-2 10-4 5-4 10-4 16l-2 8-3 7-7 29-1 2-4 9-7 18h-1c-3 2-4 5-3 9l-1 1-11 13 1 2-1 2-2 2h-3c-3-1-4 2-4 5h-4c-4 4-8 6-12 7l-3 1-6 3-12 2c-9 1-17 5-26 1l-11-2c-8-1-15-5-22-9l-10-4v-1l-6-4-1-2-11-10-6-7-12-18a459 459 0 0 1-16-27l-7-18-1-1-3-7c1-6-4-10-7-16l1-2-1-7c-1-4-4-7-4-11 0-7-2-13-7-19l1-2c1-10-2-20-7-31l1-6-1-24-5-16 1-2V694l3-21 1-29 1-1 5-19c2-8-1-17 5-24l1-3 2-14 5-16 3-6 1-10 1-1c5-3 7-6 4-11l2-3c5-2 7-5 4-10h-1l1-1 1-1h2c2-1 5-3 4-7l2-3c2-1 5-3 4-7l7-9 5-7 2-2 4-6h1l4-5 3-1 5-6 4-1 4-4 4-2 5-4 11-4 11-2h35l6-1h3l1 1 1 1c2 4 6 4 11 5l2 2c1 4 4 3 7 4l1 1c1 2 2 5 5 4h1a72 72 0 0 1 8 11v1l5 6 4 3 1 3 3 7 3 8 5 8 1 3 1 3-1 1c-1 4 2 6 5 8v4c0 4 0 10 6 13l1 2v2l-1 3c0 5 1 8 5 10l1 4 1 4-1 3c-1 6 2 9 6 12v2l-1 4c1 4-1 9 5 11l1 3 6 7c5 5 13 2 16-6h1c4-2 4-5 4-9l-1-100-2-31-2-4 1-1-2-4M841 771l-1 4v222l1 5-1 2-4 9-1 12-2 1-5 6-3 4c-4 4-7 7-13 7l-2 2-6 3-24 5-2 3-1-1-15-1-4 2h-1l-3-1-12-6c-4-1-9 0-11-2-5-5-11-5-16-9-4-4-10-6-15-11l-4-1v-1l-2-4c-9-8-15-18-22-27l-9-14-1-3-4-7-2-6-2-5-4-10-1-3c-3-7-7-13-9-21-2-7-1-15-6-22v-3l-3-14-3-11c0-12 0-23-5-34l-1-8-3-82 2-24 1-45v-24l3-4 1-9 1-3v-6l-1-7v-8l1-1c2-5 7-8 5-15l1-2-1-4 1-2c5-4 7-9 5-16v-2l1-4 1-2c2-2 5-4 3-9l1-3 1-1 3-4c1-3 4-6 2-10l1-2c2-2 6-3 4-8l1-4 4-7 1-3h1l7-10c6-10 14-19 22-28 4-5 10-9 16-13l12-8 7-4 8-3 5-2 18-1 34 1c3 0 5 2 8 3l3 2c8-1 13 5 18 8 6 5 11 10 16 17 8 10 13 22 20 33l1 5 2 6 10 25v4l1 5 4 13c6 11 4 24 11 34l1 2c1 3 7 8 11 8 6 0 15-7 15-14v-22l-1-74-4-50c0-8-6-11-11-15-4-3-11-4-16-7l-3-2-3-2c-11 0-20-7-31-7l-8-2c-11-5-23-3-36-2l-5-1-19-1-4 2-3-1h-20c-7 0-13 4-19 7l-2-1-11 2-10 4-4 2-8 3-5 3-5 3-13 7-9 6-12 10-15 14-18 21-15 20c-4 8-13 14-14 24l-1 2-3 5-3 7-3 6-2 4-10 24v2l-1 6-4 11-3 7-3 15-3 11c-3 2-4 5-2 9a587 587 0 0 0 1 9l-1 8-3 11c-4 14-3 28-3 42l2 3v10a297 297 0 0 1-1 37l-1 4c-1 18 2 35 4 52l3 5v10l-1 6c0 4-2 8 4 10 1 2-2 6 3 8v6l-1 2-1 6c0 3 0 5 5 6h1v2l2 16 3 8 4 12 2 7 1 5 10 19 7 16 10 16 6 9 3 1 4 9 11 12 5 1 1 2c-1 4 2 5 5 6 0 3 2 4 5 4l1 2c0 4 3 4 6 5v1c1 5 6 4 9 6 1 4 4 4 7 5 1 2 2 5 6 4l2 1c2 6 8 5 13 6l1 1c2 5 7 4 12 4v1c2 3 4 5 9 3l2 1 6-1 1 1c4 6 9 7 17 5l2-1 7 2h5l2 1c6 1 12 4 17 4l26-2 10-3h3l6-2 2 1 5 1h9c4-1 8-2 11-7l1 1 5-1 2 1c4 0 8-2 12-6l2 1c5 1 9-2 14-7l2 1c4 1 6-1 8-5l3-1 5-1 7-5c3-3 7-5 8-8 3-8 6-16 6-23V797l1-28-1-4v-3h1l3-2c2-4 6-4 9-4l20-6 1-1 2 1c5 0 9-3 10-7 2-4 0-12-3-15-4-4-10-5-16-5H780c-9 1-16 6-15 16 1 6 5 12 12 11l7 1 5-2 1 1c4 2 7 4 11 4l22 1 4 1 12 12 2 3z"/>
  <path fill="#FFF" d="m1501 718-1-3a741 741 0 0 0-225-501A747 747 0 0 0 864 9l-81-8h718v717zm-718 783 20-2c181-13 337-82 468-207a736 736 0 0 0 230-507v716H783zM717 1l-4 1A745 745 0 0 0 10 635c-4 24-5 49-9 74V1h716zM1 793l1 5c13 181 81 338 206 470a736 736 0 0 0 509 233H1V793z"/>
  <path fill="#FEFEFE" d="M777 1056h10l2 1 9 1c4 0 7-1 7-6h3l7-3 4-2 7-4c6-5 12-10 13-18l2-4c1-2 3-3 3-5l3-36c-1-69 3-138-2-207-1-7-2-12-8-17-7-6-15-6-23-9-6-2-13-1-20-1-8 0-15 0-22-5l-2-4 3-4 14-2h141l19 2 6-1 1 1v8c-4 0-5 1-5 4h-1l-4 2h-7c-7-2-12 1-17 3-10 5-17 14-17 25v254l2 6-1 2c-3 3-8 4-8 10h-1c-3 1-8 1-8 6l-2 1c-6-1-9 2-12 6l-7 1h-3l1 2v1l-3 1-16 2-12 4-26 6v1l-3 1-4-1h-2c-10-1-19-2-28-1-20 2-39-3-58-6l-7-3-8-3-6-3-5-2-17-8-8-5-12-10-3 1-2-2v-1l-10-10-1 1 1-1-6-6-7-11-8-10c-3-4-7-7-9-13l-2-4-3-3-8-15-4-10-2-4-3-8-2-5-4-11-2-4-3-8-2-11c-5-12-7-24-10-36-1-7 0-14-4-21l-1-6-5-74-3-3 1-24 2-5 1-11 3-29c0-13 0-26 5-39l3-18c0-4 3-8 4-12 0-6 2-10 4-16l7-20c1-8 6-15 9-23 2-3 4-5 1-8l6-12 22-34c5-2 14-13 14-17l7-8 3-1 12-10 7-8 10-9h2l5-1 13-9 12-7 2 1 6-2 9-4a567 567 0 0 1 17-6c9 2 16-3 24-5h3l6-1h38l7 1 5 1c8 4 15 6 24 4l5 1h3l2 1c4 6 9 5 14 4l4 2c2 3 4 5 8 3l5 2c3 1 4 7 9 4l6 3 5 5 2 3 2 3v5l-1 23v13l-1 3v74l-1 31-13-2-2-6-4-12-5-17v-4c1-7-1-13-6-17l-2-10-4-9c2-7-3-10-6-15l-10-21-3-6-2-2c-1-4-1-8-6-9v-1c-1-3-2-6-6-6l-1-1c-5-9-13-13-21-17l-1 1c-6-2-10-7-16-5l-12-6-23-1c-6 1-13 0-17 6h-2l-3 1h-6l-3 2-6 2c-4 1-7 0-7 5h-1c-3 1-8 1-9 6l-10 8-24 25-6 9v3l-6 9c-6 9-10 19-13 29-5 2-5 7-6 12-2 5-5 10-5 16v2l-1 2c-5 5-5 10-4 16l-2 6c-1 4-6 6-3 11v4l1 2v1c0 1 0 0 0 0h-2v2l-1 6-3 9-1 17v15l-2 1v2l-1 2-3 9-1 52 1 5v75c0 4 3 7 5 12v3l1 4v13c-1 8-2 15 4 20v2l1 3v8c0 6-2 13 5 17l1 8c-1 6 0 11 5 14v2l1 2v6c-2 4-1 6 3 7l2 6c0 4-1 7 4 8l1 5c1 5 1 9 6 10l1 5c-1 4 1 6 4 7v2c1 4 1 8 6 9l1 4 6 7v2l5 5 2 3 4 6 5 3h1v2l3 3 2 3 3 2h2l2 3c-1 4 2 3 4 3h1v2l14 10h2l3 1c1 3 2 5 5 3h3l3 1 4 4c3 2 7 4 10 0h6l3 1 5 1h4c2 1 4 4 6-1l1 1 4-1v-1zm568-12-1 2-8 8-26 12h-12l-3 4-4 1-18 1c-6 1-11 4-17 6h-3l-2-1h-57l-2 1h-5l-5-1c-7-4-14-7-22-6l-5-2-9-4-17-7-11-6-12-9-11-9-14-14-9-10-13-17h-3l-3-6-4-5v-1l-5-8-5-9-2-5-5-9v-1c-1-5-1-10-6-13v-2c-1-5-3-9-6-13v-4l-6-17v-2l-5-14v-3l-1-5v-2c1-8-3-14-5-20v-8l-1-20c0-4-3-7-4-11v-1l-1-6v-30l1-53-1-2-1-22 1-9 1-5 4-7 1-20v-10l2-5c4-6 3-13 4-20v-2c3-5 6-9 5-15v-1l4-7 2-10v-1l6-13 7-16 1-1 8-17v-2l1-2c2-2 6-3 5-8l1-2 6-10 1-1 4-6 1-1 16-19 6-8 1-1 7-6 3-3 2-2 3-1 8-7 9-7 2-2 9-6c4 0 7-1 9-5l22-8 17-4 11-4 8-2h6l3-1 4-1a548 548 0 0 0 35 1l9 1 3 2c4 4 10 4 15 3h11l18 7 7 2 20 9c7 2 11 8 11 15l1 45v63l1 29c0 5 0 10-6 11-3 1-6 0-8-1l-2-4-5-12v-3c0-7-2-14-7-19v-1l1-3v-4c1-3 1-6-3-7l-2-2v-2l-1-2v-3c0-5-1-9-5-12v-2l-1-2v-2l-4-7-1-5-8-18-3-3-1-3-4-6-1-2c-2-6-6-10-11-13l-2-3-3-2-2-2-4-4h-1l-16-11h-5l-3-1h-1l-3-2c-1-2-2-3-4-3l-28-1-5 4-3 2h-4l-2 1h-3l-9 5h-2c-9 4-18 9-24 17l-10 10c-9 5-12 13-18 20l-6 9-8 16-9 19v2l-1 5-5 9-3 8-1 10v4c-2 3-5 6-5 10l-1 12v2c-8 10-8 22-6 34l-1 3-5 18-1 47 1 5-1 5-3 30 2 32 2 4v50l6 15v2c-2 12-1 22 6 32v2c-3 9 3 16 6 23v2c-3 6 2 10 4 14l2 11 9 20 7 18 6 11 5 3v2c2 7 6 12 12 17l13 16 8 5c1 5 3 6 7 6 1 4 11 11 16 11h1l7 5 7 2c4 4 9 4 14 4h16c8 0 16 2 23-4l2-1c8 1 14-5 20-8 8-5 16-11 21-19 2-2 2-5 3-7l5-3 2-5c3-7 8-13 10-20 0-3 2-5 3-8l1-8 1-2c5-5 7-11 5-18l1-2a134 134 0 0 0 10-28v-11l1-3c1-2 1-5 3-6 3-5 3-11 3-17v-1l7-6c7-1 9 3 11 8 1 2-1 5 2 5a905 905 0 0 1-2 45l1 2a203 203 0 0 1-2 23l-1 4-2 18v18l-1 36 1 1 2 3z"/>
  <path fill="#555" d="m384 452-3 2c-15-3-29-2-44 0l-5 2-8 3-4 1-13 10a151 151 0 0 0-43 49l-8 18-4 8-11 26-2 14-2 6-3 11-4 14-2 9c0 11-1 22-4 33-2 9-1 19-2 29l-3 55 1 31 2 20 1 37c0 6 3 12 3 19l3 22c0 4 2 7 3 11l2 10 4 13 2 10 3 10a162 162 0 0 0 6 16l1 1 7 19 9 19 8 15 7 8 17 20 19 14 16 10 11 2c4 1 8 1 11 3 7 2 14 0 21-1l17-3h2l17-9 15-13 6-8 8-15h1l9-19 1-1 7-28v-2c7-8 3-19 9-28l1-2 7-32c2-11 13-17 22-13 6 3 9 9 9 15l-2 61-1 18-2 68c0 8-5 13-9 17-5 3-10 6-16 7-8 2-14 6-22 9l-7 2-13 3-14 3-48 4-19-2-30-3-3-1-13-4-9-3-1-2-17-7-14-8-12-9-10-7-16-16-11-14-13-16-3-6-2-3-15-24-4-11-8-20c-4-7-4-15-7-22-3-5-4-10-4-17l3 1v2l5 18v1l6 14 1 4 4 8 1 3 1 3v1l5 10v1l6 11 2 3c5 9 9 18 15 26 10 14 22 28 35 40l11 7 2 2 3 1 1 2c10 9 23 15 36 20l3 1 10 3 3 1 4 1 5 2 3 1 3 1h8l10 1h5l7 1h33l9-2h17l4-2h1l7-1h3l2-1 5-2h2l10-2 2-1 23-9 3-1c7-2 13-6 17-13l1-3v-7l1-26v-11l1-37v-18l1-13 1-21v-14c-1-6-2-12-8-16-5 0-9-1-12 4-6 11-7 24-11 37l-8 33-9 25c-5 16-12 31-22 44-9 12-20 21-34 27-11 4-23 6-35 6-13 0-26-3-38-9l-12-7-4-3-15-12-3-3-4-3v-1l-4-6-2-3c-14-16-23-35-32-54-5-11-8-23-12-34l-7-27-2-8-1-2-3-13v-3l-1-12-1-2v-2l-1-3v-3l-1-3-1-6-1-9v-19l-1-2v-5l-1-3v-8l-1-16v-46l1-11v-9l1-11v-9l1-7v-11l1-4v-10l1-4 4-21v-7a765 765 0 0 1 7-27v-5l4-13h1l-1-1 1-2v-6l15-34 1-2c4-13 12-24 20-35 11-15 23-28 40-38 11-6 22-11 34-12l2-1h4l2-1h11l3 1h4l4 1 7 2z"/>
  <path fill="#4A4A4A" d="m1043 538-2 3-8 14-13 31v3l-1 2-4 8-1 8-1 2-4 14-1 3-5 18v6l-1 3-2 8-3 23 1 3-1 1v4l-1 9-1 3-1 58 1 34 1 4 1 9 1 5v1l-1 4 4 24v3l1 4v4l6 20-1 2 1 5v3l6 14-1 2 6 17 1 4c1 5 3 9 6 13v2c1 5 3 9 6 13v1l4 9 3 5c1 4 3 6 5 9v1l5 7v1l4 5 3 6c9 14 19 27 32 38l25 20c6 5 14 9 22 12 9 5 19 9 29 11l3 1h1l8 3h6l6 1h4l10 1 6 1h14l12-2h19l3-1h11l5-2h1l8-2h4l4-1 2 1c-6 2-12 6-18 6l-55 5-30-3-7-1c-6 0-13 0-17-4l-1-1c-9 0-17-5-25-7l-3-2-4-2c-8-2-13-7-19-11l-18-13-15-15a239 239 0 0 1-43-59l-8-17-9-20-1-2-7-26-1-5c-5-4-4-10-5-15v-4c-5-9-3-19-6-27-7-17-4-34-6-51l-4-59c0-15 3-30 5-45v-12c0-9 1-18 4-27 2-5 2-9 2-14l1-7 4-14c1-4 1-9 5-13l1-6 4-9 1-2c0-8 4-15 7-23l2-3 2-3 8-18 8-14 7-11 20-28 20-20 13-12 10-5v1l-17 15-2 2c-2 0-2 1-3 2a171 171 0 0 0-8 8l-11 10-11 17-1 1-4 6-1 1c-3 3-4 7-6 10l-2 2-4 8z"/>
  <path fill="#CCC" d="m953 732-6 1-19-2H787l-14 2-3 4 2 4c7 5 14 5 22 5 7 0 14-1 20 1 8 3 16 3 23 9 6 5 7 10 8 17 5 69 1 138 2 207l-3 36c0 2-2 3-3 5l-2 4c-1 8-7 13-13 18l-7 4-4 2-7 2 9-5 9-6 8-10c5-9 9-18 9-30V774l-2-6-2-4-10-10-7-1-3-1-6-1h-2l-5-1h-2v-1l-6-1-3 1-5 1-1-1-10-1c-4-1-8-2-10-6s-2-8 2-11l9-3h164l7 2 2 2z"/>
  <path fill="#3E3E3E" d="M905 466v-6c0-8-6-12-12-15l-20-9-9-1-2-1a222 222 0 0 0-40-10h-18l-3-1-1-1c12-1 24-3 35 2l8 2c11 0 20 7 31 7l3 2 3 2c5 3 12 4 16 7 5 4 11 7 11 15l4 50 1 74v22c0 7-9 14-15 14-4 0-10-5-11-8l-1-2c-7-10-5-23-11-34l-4-13-1-5v-4l-10-25-2-6-1-5c-7-11-12-23-20-33-5-7-10-12-16-17-5-3-10-9-18-8l-3-2c-3-1-5-3-8-3a738 738 0 0 0-52 0l-5 2-8 3-7 4-12 8c-6 4-12 8-16 13-8 9-16 18-22 28-3 3-4 7-8 10l-2-2 6-9 18-22 13-14a534 534 0 0 0 13-10l5-3h1c4-2 9-3 13-6l9-5h1l2 1h3c11-3 22-4 33-2l15 1h3v1l21 9 1 1 6 3 4 4 2 1 2 2 4 4 1 1 4 6 1 1 2 3 2 3 3 3 1 3 11 22v2l6 12v1l6 20v2l1 5 10 36 7 13 2 4c2 3 6 4 9 3 4-2 7-4 7-9l1-1c4-9 2-19 1-29l-1-1 1-7v-21l-1-6v-32l-2-3v-5l1-13v-20l-2-3z"/>
  <path fill="#303030" d="m904 1037 1-2 2-6v-65l-1-2v-1l1-3V856a9662 9662 0 0 1 0-51v-2l1-21 1-5 3-11 1 3-1 28v224c0 7-3 15-6 23-1 3-5 5-8 8l-7 5-6 1v-2l13-9 5-5 1-5z"/>
  <path fill="#3E3E3E" d="M687 1019h-1l-1-3-8-9a357 357 0 0 0-9-13c-4-8-9-15-12-23l-14-34-5-13v-2l-1-5-5-19-5-18-4-34-3-10v-1l1-4v-6l-4-60 1-53 3-38-1-4 1-5 1-4 1 3v18l-1 45-2 24 3 82 1 8c5 11 5 22 5 34l3 11 3 14v3c5 7 4 15 6 22 2 8 6 14 9 21l1 3 4 10 2 5 2 6 4 7 1 3 9 14c7 9 13 19 22 27l2 4-9-6zm-18-561h-2l-12 9-20 19-7 8-4 4-10 13-22 34-6 12-2 4c-8 11-11 25-15 37l-10 31-1 5a216 216 0 0 1-6 26h-1l-1-6 3-8 2-11 3-15 3-7 4-11 1-6v-2l10-24 2-4 3-6 3-7 3-5 1-2c1-10 10-16 14-24l15-20 18-21 15-14 12-10 9-6 13-7 5-3 5-3 8-3 4-2 10-4 12-1v2l-2-1-22 8v1l-2 1-5 2h-1l-4 2h-1l-5 3-6 4-6 3-5 5z"/>
  <path fill="silver" d="m546 762 3 3 5 74 1 6c4 7 3 14 4 21 3 12 5 24 10 36l2 11 3 8 2 4 4 11 2 5 3 8 2 4 4 10 8 15 3 3 2 4c2 6 6 9 9 13l8 10a198 198 0 0 1 7 12l-3-1-8-10-16-23-14-25-14-34-10-29-2-7v-5l-1-2-1-6-1-2-1-7-1-10-1-2v-2l-2-6-2-4v-22l-1-3v-5l-1-2v-4l-1-3v-4l-1-4-2-23 1-13zM347 450c-12 1-23 6-34 12-17 10-29 23-40 38-8 11-16 22-20 35l-1 2a103 103 0 0 1 12-27l14-21 19-19c4-3 8-7 13-9 4-3 10-4 13-7 7-6 16-4 23-8 5-3 13-3 19-2l28 7 1 1 7 4 10 7a161 161 0 0 1 23 27l6 12 4 6v3h-2l-6-11-3-5-1-2a1100 1100 0 0 1-6-8l-1-2-19-20-6-3-2-2-5-3-7-2-2-1-8-3h-3l-4-1h-3a192 192 0 0 1-13 1h-4l-2 1z"/>
  <path fill="#ADADAD" d="M1324 610c2 1 5 2 8 1 6-1 6-6 6-11l-1-29v-63l-1-45c0-7-4-13-11-15l-20-9-7-2-18-7v-2l2 1 17 6 9 3 22 9 4 2v2l3 3 1 3v3l1 4v9l2 88 1 37c0 10-6 20-16 16l-1-1-1-3z"/>
  <path fill="#3E3E3E" d="m843 994-1 6-1 1-1-4a317474 317474 0 0 1 1-223h2v220z"/>
  <path fill="#ADADAD" d="M321 428h4l16-4h6l9-2h5l4 1 11-1h7l9 1h13l2 1 19 4h1v2h-7l-15-4-18-1c-18 0-37-2-55 5-6 2-12 2-18 5-5 2-11 3-16 7h-1c-6 2-12 4-16 7l-21 15-27 26-11 10 5-8 3-4 3-3 5-5 7-7 7-6 15-12 3-2 3-2 11-6 6-4 2-1 14-7h3l12-5z"/>
  <path fill="#303030" d="M770 731c-3 3-3 7-1 11s6 5 10 6l10 1-5 2-7-1c-7 1-11-5-12-11-1-10 6-15 15-16h159c6 0 12 1 16 5 3 3 5 11 3 15-1 4-5 7-11 6l8-6c3-3 2-8-1-11h-1l-2-2-3-3-7-2H783l-6 2-7 4z"/>
  <path fill="silver" d="m556 648 2-14 2-5c3-10 5-21 9-31 4-12 7-26 15-37l2-4c3 3 1 5-1 8-3 8-8 15-9 23l-7 20c-2 6-4 10-4 16-1 4-4 8-4 12l-3 18c-5 13-5 26-5 39l-3 29-1 11-2 4-1-10 1-21 1-7v-3l1-3v-2l1-4 1-11v-4l1-9v-3l1-3 3-9zm90 390 3-1 12 10 8 5 17 8 5 2 6 3 8 3 7 3c19 3 38 8 58 6 9-1 18 0 28 1l-1 2h-17l-7 1-5-1h-10l-9-1h-5l-3 1-8-1-2-1h-2a171 171 0 0 0-14-3l-1-1-6-1-13-5-3-1a125 125 0 0 0-13-6l-4-2-3-2-4-2-2-2-3-2-2-1-5-4-2-1-7-5-1-2z"/>
  <path fill="#3E3E3E" d="m561 891 2 7 10 29 14 34 14 25 16 23h-4l-5-8-2-2-6-8-10-16-7-16-10-19-1-5-2-7-4-12-3-8-2-17z"/>
  <path fill="#303030" d="M1286 1011c-2-3-1-6 2-8h1l7-18 4-9 1-2 7-29 3-7 2-8c0-6 0-11 4-16 2-3 1-7 2-10l4-12 2-7c1-5 5-8 11-7-5 2-8 5-10 10l-4 13v6l-1 2-4 13-1 10-1 2-11 34-5 16-13 27zm55-543 2 3 2 31 1 100c0 4 0 7-5 9l3-16-1-61v-2l-2-64z"/>
  <path fill="#646464" d="m1341 468 2 64v2l1 61-3 16-1 1-5 4c-3 2-7 1-9-2 10 4 16-6 16-16l-1-37a77743 77743 0 0 1 0-93z"/>
  <path fill="#3E3E3E" d="m1071 645-1 28-3 21v107l-1 5h-1v-13l-1-13v-65l1-33 1-6v-3l1-5v-1l1-4v-1l1-5v-2l1-4v-5l1-1z"/>
  <path fill="#C5C5C5" d="m1081 581 1-10 3-8 5-9 1-5v-2l9-19a282 282 0 0 1 14-25c6-7 9-15 18-20l-20 28-7 13v1l-1 1 1 1-4 5v4l-2 4-4 10-1 1-2 3-1 3-1 2-1 2-2 4v2l-2 5-4 9z"/>
  <path fill="#CCC" d="M1284 1019c-1 2-1 5-3 7-5 8-13 14-21 19-6 3-12 9-20 8l-2 1c-7 6-15 4-23 4h-16c-5 0-10 0-14-4l-7-2-7-5h3l1 1a56 56 0 0 0 9 3c7 4 14 6 23 5h8c9 1 17-1 24-5h3l7-4h1l10-6h1l11-9 2-2 10-11z"/>
  <path fill="#3E3E3E" d="M1250 1047h-1l-7 3h-3l-24 5v1l-8-1-9-2-14-2-2-1-7-3h-1l-15-11 9 4c7 4 14 8 22 9l11 2c9 4 17 0 26-1l12-2 6-3 3-1c4-1 8-3 12-7l2 1-1 3h-1l-10 6z"/>
  <path fill="#8D8D8D" d="M442 511h2l6 14v2l10 30 7 21v3l7 22v2l2 2 2 2c0 2 1 3 2 3 3 4 7 1 11 0-6 6-9 6-14 1l-6-7-1-6a323 323 0 0 0-6-21v-2l-5-14v-3l-6-18v-2l-5-10v-2l-6-14v-3z"/>
  <path fill="#3E3E3E" d="m1090 559 1-2 1-3 2-3-1 10-3 6-5 16-2 14-1 3c-6 7-3 16-5 24l-5 19-2-1 1-8 1-5v-2l1-5v-1l2-6v-1l1-3-1-2 1-2 1-4 4-12v-6l1-1 4-12 1-5v-2l2-4 1-2zm-2 367c3 5 8 9 7 15l3 7 1 1 7 18 6 10 10 17 12 18v1l-3-1-3-4-2-2-3-4-4-6-1-2-5-8-1-2-3-5v-1l-2-2v-1l-2-4v-2l-4-6v-1l-9-25-5-9v-1l1-1z"/>
  <path fill="#303030" d="m1351 962 1 5a5309 5309 0 0 1-1 71c-1 3-3 5-5 6l2-7v-7a240 240 0 0 1 1-29v-26l-1-11 1-2h2z"/>
  <path fill="#848484" d="m1284 1019-10 11v-3a2233 2233 0 0 0 11-15l14-28 5-16 11-34-1 11-3 8v2l-3 10-3 8v2c-6 16-13 30-21 44z"/>
  <path fill="#3E3E3E" d="m833 1030-7 10-9 5-9 6-4 1-5 2h-5l-2 1h-3l-2 1h-8l1-3 24-5 6-3 2-2c6 0 9-3 13-7l3-4 6-6-1 4zm-129 5-1-1-2-2h-1l-3-3v-3l3 1c5 5 11 7 15 11 5 4 11 4 16 9 2 2 7 1 11 2l12 6-6 1-3-2h-2l-9-2-3-2-17-9-1-1-9-5z"/>
  <path fill="#303030" d="m495 485 2 3a7687 7687 0 0 1-2 58l-1-14v-39l1-8zm254 595 9 1h5l3 1 10-1h4l9-1h11v1l-9 3-26 2c-5 0-11-3-17-5l1-1z"/>
  <path fill="#CCC" d="m494 546 1 7a1097 1097 0 0 1-2 53 3731 3731 0 0 1 1-60z"/>
  <path fill="#3E3E3E" d="m548 809 1 4v2l1 5v3l1 12-3-4c-2-17-5-34-4-52l1-4 2 23v4l1 4v3z"/>
  <path fill="#646464" d="M1166 457h2l9-6h5l4-1c11-2 22-3 33-1l10 1 1 1 1 2h-3l-7-2c-12-2-23-1-34 2l-10 3-12 4h-2l3-3zm-60 67c2-4 3-9 6-13l20-28 10-10h3l-1 3-3 3a323 323 0 0 0-12 12l-5 7-7 9-4 7-2 4-4 6h-1z"/>
  <path fill="silver" d="M807 1078v-1l26-6 12-4 16-2v2h-3l-2 1h-2l-13 5-3 1h-10l-3 2h-6l-2 2h-1l-4 1h-3l-2-1z"/>
  <path fill="#3E3E3E" d="M547 706a521 521 0 0 1-3 19c0-14-1-28 3-42l3-11 1 2v2l-2 12v3l-1 3v2l-1 4v6z"/>
  <path fill="#646464" d="M1113 456v-1c8-7 16-14 26-16l16-8 12-2-30 12-1 2-9 5-9 6-2 2h-3z"/>
  <path fill="#ADADAD" d="m479 444 1 1 1 1v1l-1 1-6-2-9-4-7-3-7-2c-7-1-13-3-18-8l1-1v1h1l13 4h2l3 1 3 1 5 2h1l4 2 5 2 4 2 1 1h3z"/>
  <path fill="#8D8D8D" d="M954 733c3 2 4 7 1 10l-8 6h-2l-27 6-6 7h-1l-1-1c2-5 6-8 11-9l16-5h8l3-2h1l5-4v-8z"/>
  <path fill="#ADADAD" d="m1136 443 1-2 30-12 2-1 19-5 4 1 1 1-7 2-11 4-17 4-22 8z"/>
  <path fill="#848484" d="M1322 907v-6l4-13c2-5 5-8 10-10h5l9 9v2h-3c-2-5-4-9-12-8l-6 6-1 2-1 3-5 15z"/>
  <path fill="#3E3E3E" d="m1066 808 5 15v24l-3-19-3-11 1-2v-7z"/>
  <path fill="#646464" d="m1330 447-22-9-9-3a408 408 0 0 1-8-5 105 105 0 0 1 21 8 427 427 0 0 1 18 9z"/>
  <path fill="#303030" d="m790 750 5-1 4 1h5l2 1h5l2 1 6 1h3v2l-21-1c-4 0-7-2-11-4z"/>
  <path fill="#555" d="m146 802 1-22h1v7l2 21 2 14v5h-1l-1-4-4-21z"/>
  <path fill="#848484" d="m1310 1066 26-12 8-7c2 5-3 5-5 9l-4 1-20 9-5 1v-1z"/>
  <path fill="#3E3E3E" d="M769 424h-3l-6-1c-9-1-17 1-25 5h-5c5-3 11-7 18-7l21 1v2zm308 463c5 5 7 11 7 18 0 4 3 7 4 11v8l-6-15-1-3-5-16v-2l1-1z"/>
  <path fill="#303030" d="M1187 453c11-3 22-4 34-2l7 2-5 1h-31l-5-1z"/>
  <path fill="#979797" d="m659 520 2 2-1 1v2l-1 1-3 6-2 4-4 8-1 3-6 9 3-7c3-10 7-20 13-29z"/>
  <path fill="#555" d="M146 722v-23l4-19 1-4 2 2-1 4-2 7-2 25v8h-2z"/>
  <path fill="#303030" d="m471 606 6 7c5 5 8 5 14-1l2-4h1l2-1v2c-2 3-5 8-8 10-4 1-9 0-12-4-2-3-7-4-5-9z"/>
  <path fill="#979797" d="m622 661-2 3-1-9 5-26v-6l2-2v8l-4 21v11z"/>
  <path fill="#303030" d="m912 762 6-7 27-6v1l-20 6c-3 0-7 0-9 4l-4 2zM292 440h-2l-6 5-12 6-2 2-3 2h-2l4-5 16-11 8-1-1 2z"/>
  <path fill="#3E3E3E" d="M1072 854c4 10 7 20 5 31h-1v-3l-5-23v-5h1z"/>
  <path fill="#303030" d="M196 534c-1-3 1-6 3-9l8-12 6-6v2l-3 3-2 6-2 2-2 3-5 10-1 1h-2z"/>
  <path fill="#848484" d="m1065 817 3 11 3 20v6h-2v-7l-4-30z"/>
  <path fill="#303030" d="M481 447v-2c5-3 5 2 8 4 5 3 8 12 5 17l-4-10-9-9z"/>
  <path fill="#8D8D8D" d="m490 456 4 10 1 18-2 9-1-3c-1-11 2-22-3-33l1-1z"/>
  <path fill="#4A4A4A" d="m1310 1067 5-1 20-9 3-1c-3 3-7 7-13 8l-12 5-6 1v-3h3zM406 463a883 883 0 0 1 0 2v-2z"/>
  <path fill="#303030" d="m407 424-2-1-1-1c9-2 16-1 24 4l-1 2-2-1-18-3z"/>
  <path fill="#3E3E3E" d="M556 859v10c-4-1-1-5-3-8l-3-9 1-7 2 4 2 6v2l1 2z"/>
  <path fill="#848484" d="M769 424v-2h31v1l-31 1zm538 643v3l-16 4-2-1 2-2 4-1 12-3z"/>
  <path fill="#303030" d="M325 428h-3c7-6 15-8 25-6v1h-6l-16 5z"/>
  <path fill="#646464" d="m1324 610 1 3-6-3-1-3a561 561 0 0 0-3-16h1l1 3 4 12 3 4z"/>
  <path fill="#8D8D8D" d="M834 1030v-4l1-2 2-6 4-14a869 869 0 0 1 1-3c1 11-3 20-8 29z"/>
  <path fill="#3E3E3E" d="M622 658v-8l4-20 1 7-1 5v4l-2 8-2 4z"/>
  <path fill="#303030" d="M1251 422c9-2 17-1 24 5l-2 1-1-1-18-3-3-1v-1zm-417 652h2c-2 5-6 6-10 7l-10-1v-2h3c4 0 8-1 11-3h2l2-1z"/>
  <path fill="#646464" d="M213 508v-1a270 270 0 0 1 14-15l-5 8-6 8h-3z"/>
  <path fill="#303030" d="m1319 610 6 4h1c2 3 6 4 9 2l5-4c-2 7-10 10-15 5l-6-7z"/>
  <path fill="#555" d="m152 670-1-9 6-16-2 6-1 14-1 5h-1z"/>
  <path fill="#646464" d="M1299 534v2h-2l-1-4-4-7v-2l-1-2-1-4v-4l4 5 1 5 4 7v4z"/>
  <path fill="#A8A8A8" d="m180 568 1-2 1-3 1-2 5-5a41 41 0 0 1-12 22h-1l1-2 2-3v-1l2-4z"/>
  <path fill="#303030" d="m613 1009 4 1 8 9 3 3v1l-4-1-11-13z"/>
  <path fill="#3E3E3E" d="M840 1004a184 184 0 0 1-5 20l1-11 4-9z"/>
  <path fill="#979797" d="M635 577c0-6 3-11 6-16l2-1h1l-1 2v2l-1 1-3 8-1 2-2 2h-1z"/>
  <path fill="#646464" d="m1282 494 1 3 6 15-3-2-4-8-2-8h2z"/>
  <path fill="#979797" d="m629 603 1-6h3l-1 3v3l-1 2-6 13v-4l4-11z"/>
  <path fill="#303030" d="m146 802 4 21c-5-6-5-13-4-21z"/>
  <path fill="#555" d="M145 757v-16h3l-1 16h-2z"/>
  <path fill="#646464" d="m1228 422-21 1v-2l21 1z"/>
  <path fill="#3E3E3E" d="M633 597h-1v-2l6-13c2 6 0 11-5 15z"/>
  <path fill="#303030" d="m729 1078 2 1v1c-7 2-12 1-16-5h2c4 1 7 5 12 3zM145 757h2l1 2-1 5-1 9-2-3 1-13z"/>
  <path fill="#3E3E3E" d="M644 560h-1v-4l6-9c3 3 0 6-1 9l-4 4z"/>
  <path fill="#555" d="m162 888-1-1-4-12 1-6h2l-1 2 5 15v1l-2 1z"/>
  <path fill="#3E3E3E" d="m794 421-22 1 3-2 19 1z"/>
  <path fill="#646464" d="M265 455h2l-15 12-1-1 14-11zm645 307h1l1 4-3 11-2 5v-8l1-5 2-7z"/>
  <path fill="#303030" d="m149 680-3 19c-2-7 0-13 3-19z"/>
  <path fill="#848484" d="m1159 1036 15 11h-3l-2-1-2-1-11-9h3z"/>
  <path fill="#ADADAD" d="M1317 591h-2l-1-1 1-2-5-14 1-2c4 5 6 12 6 19z"/>
  <path fill="#303030" d="m829 755 10 10v2l-12-11 2-1zM453 542l6 18c-6-4-7-11-6-18z"/>
  <path fill="#555" d="M152 850v-2l1-3 5 16v4h-1l-2-6-3-9z"/>
  <path fill="#303030" d="m465 585 5 15c-4-4-7-8-5-15z"/>
  <path fill="#A8A8A8" d="m146 773 1-9h2a222 222 0 0 1-1 16h-1l-1-7z"/>
  <path fill="#646464" d="m1254 462 1 1 1 3a270 270 0 0 1-3-1l-6-4-3-1-5-5 15 7z"/>
  <path fill="#303030" d="M1192 423h-5l-13 3c1-5 5-4 8-5l10 1v1z"/>
  <path fill="#848484" d="m1347 955 1-15v-1h2v20h-2l-1-4z"/>
  <path fill="#303030" d="m672 1057 3 2 4 2 4 2v1c-4 0-10 1-12-6l1-1z"/>
  <path fill="#A8A8A8" d="m168 600 1-1 2-1c0 7-2 12-7 16h-1l1-3 4-11z"/>
  <path fill="#555" d="m386 453 7 2 5 3-8-1-4-4zM161 620l1-1-2 15v2l-1 1h-2v-6l4-11z"/>
  <path fill="#3E3E3E" d="M561 886v4h-2l-4-7 1-5h3l1 6 1 2z"/>
  <path fill="#646464" d="m1305 553 1 2 4 13v3h-2l-1-5-4-9 1-4h1z"/>
  <path fill="#303030" d="m1285 1013-11 14-1-1 12-13zM157 645l-6 16c-2-7 0-12 5-18h1v2zm302-82 5 14c-7-3-6-8-5-14z"/>
  <path fill="#646464" d="m1153 470-5 1h-1l15-10-1 3-5 2-3 4z"/>
  <path fill="#A8A8A8" d="m146 723 2-1 1 4-1 9h-1l-1-6v-6z"/>
  <path fill="#3E3E3E" d="m1095 550 4-10c3 4 1 7-4 10z"/>
  <path fill="#555" d="M175 578h1l-1 7-6 9 3-9a126 126 0 0 1 3-7z"/>
  <path fill="#303030" d="M442 511v1c-5-2-8-6-6-12l6 11zm416 557 3-1 9-5 2 1c-4 5-8 8-14 6v-1z"/>
  <path fill="#646464" d="m1174 426 13-3-18 5 5-2z"/>
  <path fill="#3E3E3E" d="m625 618 6-12c3 6-2 9-4 14l-2-2z"/>
  <path fill="#303030" d="m1351 887-10-9c6-2 10 3 10 9z"/>
  <path fill="#A8A8A8" d="m160 634 2-15 1-2h2v3l-5 14z"/>
  <path fill="#303030" d="m250 466 1 1-6 6-5 3c2-5 6-8 10-10z"/>
  <path fill="#979797" d="m638 581-6 13v-3l3-10v-2h3v2z"/>
  <path fill="#3E3E3E" d="M773 1057h-2l-7-1h-3l-2-1 3-1 15 1v1l-4 1z"/>
  <path fill="#303030" d="m145 729 2 6 1 4-1 2h-2v-12z"/>
  <path fill="#3E3E3E" d="m1140 1020 11 10-4-2-6-5-1-3z"/>
  <path fill="#303030" d="m442 514 6 14c-3-4-8-8-6-14zm855 22h1l1 2c0 4 2 8 3 11-6-2-6-8-5-13z"/>
  <path fill="#848484" d="m1261 1041 1-3 2-2 4-4h3l-10 9z"/>
  <path fill="#303030" d="M496 599v-11c3 2 3 7 0 11zM238 480l-5 5h-3l9-8-1 3z"/>
  <path fill="#848484" d="m1082 910 6 14v2l-1 1h-1a533 533 0 0 0-4-17z"/>
  <path fill="#303030" d="M462 437h-1l-5-2-3-1-1-1c4-1 9-2 12 3l-2 1z"/>
  <path fill="#646464" d="m1310 574 4 14-5-10v-4h1z"/>
  <path fill="#979797" d="M697 1026v3h-2l-3-2a206 206 0 0 0-5-8l9 7h1z"/>
  <path fill="#646464" d="m292 440 2-2 12-5-14 7z"/>
  <path fill="#303030" d="M450 433h-2l-10-5c5-3 9 1 12 5z"/>
  <path fill="#646464" d="M1302 549c-1-3-3-7-3-11l6 10-1 3h-1l-1-2zm-38-79 2 3 2 5h-1l-6-7 1-1h2z"/>
  <path fill="#303030" d="M1101 536v-2l1-2 3-5c3 4 1 7-4 9zm-630-95-5-2v-2c4 1 9 0 12 6h-3l-4-2zm-162-8h-3c2-5 6-6 11-5l-8 5zm383 634 3 1 1 2c-4 0-9 1-11-5l7 2zm622-472 4 11c-6-1-4-6-4-11zm-5-17 5 10v2c-4-3-7-6-5-12z"/>
  <path fill="#646464" d="m841 1073 13-4-10 5h-2l-1-1z"/>
  <path fill="#303030" d="m448 530 5 10c-3-3-7-5-5-10zm396 544 10-5h2c-3 4-7 6-12 5zM160 620l-3 11c-2-4 0-8 3-11z"/>
  <path fill="#3E3E3E" d="m639 573 3-8c3 4 0 6-3 8z"/>
  <path fill="#303030" d="m157 875 4 12c-4-3-5-7-4-12z"/>
  <path fill="#555" d="m168 600-4 11-1-3 3-6 2-2z"/>
  <path fill="#303030" d="m1239 455 5 5c-4-1-8-1-10-5h5z"/>
  <path fill="#646464" d="M872 1063v-1l1-1 12-4v1l-3 1-8 4h-2z"/>
  <path fill="#303030" d="m172 585-3 9v2h-1c-1-4 0-8 4-11z"/>
  <path fill="#646464" d="m696 1070-1-2 13 5v1h-3l-8-4h-1zM437 428l11 5a145 145 0 0 1-14-4l3-1z"/>
  <path fill="#555" d="M151 843v-9l2 1v6l-1 2h-1z"/>
  <path fill="#646464" d="M404 422v1h-12l12-1z"/>
  <path fill="#303030" d="M383 422h-7l-1-1 8 1z"/>
  <path fill="#646464" d="m309 433 8-5h4l-12 5z"/>
  <path fill="#A8A8A8" d="M190 545h3l-5 9v-3l1-1 1-2v-3z"/>
  <path fill="#303030" d="M188 550v1l-3 3c-1-4 0-7 5-9v3l-2 2zm458 488 1 2v1c-3 0-6 0-6-5h2l3 2zm-11-8c-3 0-6-1-5-5l3 1 2 4zm668-473 4 9c-4-1-5-4-4-9z"/>
  <path fill="#555" d="m185 554 2-3 1 3v2l-5 5v-2l2-5z"/>
  <path fill="#303030" d="m697 1070 8 4c-4 2-6 0-8-4z"/>
  <path fill="#646464" d="m692 1067-7-2-1-1-1-1 9 4z"/>
  <path fill="#303030" d="M175 578h-1c-2-4 0-6 4-8v3l-2 3-1 2z"/>
  <path fill="#3E3E3E" d="m1134 1013 6 6v1l-3-1-3-4v-2zm24 23h-4l-1-2-1-3 6 5z"/>
  <path fill="#303030" d="m654 1045 2 1v2c-3-1-8 0-8-5l6 2z"/>
  <path fill="#646464" d="M193 545h-2v-3l4-4v3l-2 4zm182-124v1h-10v-1h10zm876 1v3l-9-1v-1l9-1z"/>
  <path fill="silver" d="M634 1025h-3l-3-2v-3l6 5z"/>
  <path fill="#3E3E3E" d="m651 544 3-7c3 4-1 5-3 7z"/>
  <path fill="#303030" d="m874 1063 8-4c-1 4-3 6-8 4zM152 850l3 9-3-9zm514 203 2 2v2c-3 2-4-1-5-4h3zm-5-3 2 1v2c-3 0-6 0-7-4v-1l5 2zM227 492h-2l5-6v2l-3 4zm1059 18 3 2v1l1 4-4-7zm-646 525c-3 0-5-1-5-4l1-1 3 3 1 2z"/>
  <path fill="#555" d="M406 463v1c-3 1-6 0-6-4l6 3z"/>
  <path fill="#646464" d="m238 480 1-3 1-1 5-3-7 7z"/>
  <path fill="#848484" d="m1066 808-1 7v-9h1v2z"/>
  <path fill="#303030" d="m550 852 3 9c-5-1-3-5-3-9z"/>
  <path fill="#848484" d="m1347 1037-1 7h-1l-1-3 1-3v-2h2v1z"/>
  <path fill="#646464" d="m654 1045-6-2-1-2v-1l7 5z"/>
  <path fill="#303030" d="m807 1078 2 1-5 2v-2l3-1z"/>
  <path fill="#646464" d="M347 424v-2h9l-9 2z"/>
  <path fill="#303030" d="m1292 525 4 7c-3-1-6-3-4-7z"/>
  <path fill="#646464" d="M1269 483v-5l5 7-5-2z"/>
  <path fill="#303030" d="m624 654 2-8-2 8zm-71-8-3 8c-2-3-1-6 3-8zm155 429v-2l6 1-6 1z"/>
  <path fill="#848484" d="m1152 1031 1 3-6-4v-2l4 2 1 1z"/>
  <path fill="#646464" d="m1277 486 1 2v3l-4-3 1-2h2z"/>
  <path fill="#303030" d="m555 883 4 7c-4-1-4-3-4-7z"/>
  <path fill="#646464" d="M1192 424v-2l8 1v1a19867 19867 0 0 1-8 0z"/>
  <path fill="#303030" d="M1147 471h1l-4 6 1-4 2-2zm-23 27 5-6-5 6z"/>
  <path fill="#A8A8A8" d="M153 834h-1l-1-7h1l2 2-1 5z"/>
  <path fill="#303030" d="M1330 447v-2c3-1 4 1 4 4l-4-2zm7 7-2-3c3-1 4-1 4 3h-2z"/>
  <path fill="#3E3E3E" d="m656 532 3-6-3 6z"/>
  <path fill="#303030" d="m1255 467 1-1 2 1 2 4c-3 1-4-2-5-4z"/>
  <path fill="#ADADAD" d="M1278 491v-2l4 5h-2l-2-3z"/>
  <path fill="#A8A8A8" d="M152 670h1v7l-2-1 1-6z"/>
  <path fill="#303030" d="m1107 524 4-6c2 3-1 5-4 6zm6-10 4-6c2 3-1 5-4 6zm161-28v2l-5-5 5 2v1z"/>
  <path fill="#ADADAD" d="M1350 939h-3l2-7 1 7z"/>
  <path fill="#8D8D8D" d="m829 754-2 1h-5v-2l7 1z"/>
  <path fill="#303030" d="m195 538-4 4c-1-3-1-6 4-5v1z"/>
  <path fill="#A8A8A8" d="M195 538v-1l1-2h2l-3 6v-3z"/>
  <path fill="#303030" d="m166 602-3 6 3-6zm1102 430-4 4c0-2 1-5 4-4zm-137-543 5-6-5 6zm116-28 6 4c-2 0-5 1-6-4z"/>
  <path fill="#646464" d="m1238 455-4-1-1-1v-2l3 1 2 3zm36-27 1-1 5 1v1h-5l-1-1z"/>
  <path fill="#303030" d="M365 421v1h-4l4-1zm376 659h3l1 1-4-1z"/>
  <path fill="#646464" d="M804 1079v2h-4v-3l4 1z"/>
  <path fill="#CCC" d="m759 1056 2 1 1 1-4-1 1-1z"/>
  <path fill="#303030" d="m1161 464 1-3 2-1h1l-4 4z"/>
  <path fill="#8D8D8D" d="M843 774h-2a11 11 0 0 1 0-6l2 6z"/>
  <path fill="#303030" d="M151 843h1l1 2-1 3-1-5zm32-284v2l-1 2h-2l3-4zm953-76 4-4-4 4z"/>
  <path fill="#646464" d="m465 437 1 2-4-2h3z"/>
  <path fill="#303030" d="m626 642 1-5-1 5z"/>
  <path fill="#646464" d="m669 1058-1-3 4 2-1 1h-2z"/>
  <path fill="#303030" d="m841 1073 1 1-4 1 3-2z"/>
  <path fill="#ADADAD" d="M1347 889h2l1 4c-4 1-2-2-3-4z"/>
  <path fill="#848484" d="m730 428 3 1v1h-4l-1-1v-1h2z"/>
  <path fill="#646464" d="m1260 471-2-4 1-1 2 2v2l-1 1zm-444 607v2l-4-1 4-1z"/>
  <path fill="#303030" d="M1338 460v-3h1l1 3h-2z"/>
  <path fill="#555" d="M178 572v-2l1-2-1 4z"/>
  <path fill="#303030" d="m426 485 2 2c-2 1-4 2-2-2zm884 89h-1l-1-3h2v3z"/>
  <path fill="#3E3E3E" d="M841 768v2l-2-2v-3l2 3z"/>
  <path fill="#646464" d="M1338 460h2v3l-1 1-1-4z"/>
  <path fill="#A8A8A8" d="M159 869h-1l-1-4h2v4z"/>
  <path fill="#303030" d="m1153 470 3-4-3 4z"/>
  <path fill="#848484" d="M640 1035v-2l4 2v1h-3l-1-1z"/>
  <path fill="#303030" d="m1339 464 1-1 1 3h-1l-1-2z"/>
  <path fill="#848484" d="M559 878h-3l1-2 2 2z"/>
  <path fill="#646464" d="M230 488v-3h2l-2 3z"/>
  <path fill="#A8A8A8" d="m162 888 2-1 1 3h-2l-1-2z"/>
  <path fill="#303030" d="m434 428-1 1-3-1v-1l4 1z"/>
  <path fill="#A8A8A8" d="m157 638 2-1v4h-1l-1-2v-1z"/>
  <path fill="#646464" d="M745 1081v-1l4-1-1 2h-3z"/>
  <path fill="#3E3E3E" d="M632 603v-3 3z"/>
  <path fill="#555" d="M164 617h-1v-3h1v3z"/>
  <path fill="#ADADAD" d="M1242 423v1h-4l4-1z"/>
  <path fill="#303030" d="M1269 479v3l-2-4h1l1 1z"/>
  <path fill="#ADADAD" d="M1200 425v-2h3l-3 2z"/>
  <path fill="#A8A8A8" d="M1233 451v2h-2v-2h2z"/>
  <path fill="#646464" d="m1339 457-2-3h2v3zm-909-30v2h-3v-1l1-1h2z"/>
  <path fill="#848484" d="M1076 885h1v2l-1 1h-1v-2l1-1z"/>
  <path fill="#555" d="M168 596h3l-1 2h-1l-1-2zm12-33h2l-1 3-1-3zm-23 76 1 2v2h-2l1-4z"/>
  <path fill="#4A4A4A" d="M1349 959h1l1 3h-2v-3z"/>
  <path fill="#646464" d="M552 660v3l-1-3h1z"/>
  <path fill="#3E3E3E" d="M638 579h-1v-2l1-1v3z"/>
  <path fill="#848484" d="m1071 645-1 1h-1v-3h2v2z"/>
  <path fill="#646464" d="m476 444 2-1v1h-2z"/>
  <path fill="#3E3E3E" d="M643 564v-2 2z"/>
  <path fill="#ADADAD" d="M1303 551h1l2 2h-2l-1-2z"/>
  <path fill="#646464" d="M731 1080v-1h2l-2 1z"/>
  <path fill="#303030" d="m464 579 1 2-1-2z"/>
  <path fill="#646464" d="M452 433v1h-2l2-1z"/>
  <path fill="#4A4A4A" d="m431 493 2 2-2-2z"/>
  <path fill="#303030" d="m1291 521 1 2-1-2z"/>
  <path fill="#646464" d="M856 1069v-1l2-1v2h-2z"/>
  <path fill="#8D8D8D" d="m495 607-1 1-1-2h1l1 1z"/>
  <path fill="#303030" d="m606 999 2 2-2-2z"/>
  <path fill="#3E3E3E" d="M660 525v-2 2z"/>
  <path fill="#303030" d="M481 446v-1 1z"/>
  <path fill="#FEFEFE" d="M434 429z"/>
  <path fill="#CCC" d="m910 761-3 9v4l-1 4v3l1 1v22h-1l1 1v91l-1 1v-1a117 117 0 0 1 0 20v3l1 2v20l-1 1v-1s-1 0 0 0v1l1 1-1 16v5l1 1a861 861 0 0 1 0 29v35l-2 6-2-6V775c0-11 7-20 17-25 5-2 10-5 17-3l-16 5c-5 1-9 4-11 9z"/>
  <path fill="#979797" d="m619 670 1 4-3 38-1 53 4 60-1 6h-1v-4l-3-25-1-35-1-11a238 238 0 0 1 1-26l1-35 2-20v-2l1-2 1-1z"/>
  <path fill="#D5D5D5" d="M906 502v31l-1 17 2 4v15l1 16-1 21v1l-4 3v-35a38701 38701 0 0 1 1-73h2z"/>
  <path fill="#979797" d="m619 836 3 10 4 34 5 18 5 19v5h-1v-2l-5-14-1-9-5-16v-9l-1-2v-2l-4-20v-12zm18 88 5 13 14 34c3 8 8 15 12 23l-4-1-1-4-6-9v-2l-4-7-1-5-6-10-1-5-4-8-2-6-3-7v-6h1z"/>
  <path fill="#D5D5D5" d="m613 756 1 11 1 35 3 25c-2-4-5-7-5-11v-60zm3-81-1 20-1 35-1 11-1-5 1-52 3-9z"/>
  <path fill="#C5C5C5" d="M794 451h-3c-8-2-16-4-23-4-9 0-18 2-26 3 4-6 11-5 17-6l23 1 12 6z"/>
  <path fill="#8D8D8D" d="m889 609-7-13-10-36v-5l6 14v4l5 17 4 12 2 6v1z"/>
  <path fill="#9F9F9F" d="m695 476-12 13-17 22-1-3 6-9a540 540 0 0 1 24-23z"/>
  <path fill="#848484" d="m864 435 9 1 20 9c6 3 12 7 12 15l-2-2-2-3-5-5-6-3a421 421 0 0 0-14-6l-8-4-4-1v-1z"/>
  <path fill="#8D8D8D" d="M742 450c8-1 17-3 26-3 7 0 15 2 23 4l-15-1c-11-2-22-1-33 2l-3-1v-1h2z"/>
  <path fill="#C5C5C5" d="m680 450 7-4 4-3h1l4-2h3l-12 7-13 9-5 1 6-5 5-3z"/>
  <path fill="#848484" d="M811 424h11l24 5-1 1h-5l-9-2-15-3h-5v-1z"/>
  <path fill="#C5C5C5" d="M728 430h1l-13 6-9 4-6 1 1-2 2-1 10-3 12-5h2zm-93 56a501 501 0 0 1 22-19l-7 8-12 10-3 1zm191-18-4-3-6-4h-1l-5-5 1-1c8 4 16 8 21 17h-2l-2-2-2-2z"/>
  <path fill="#8D8D8D" d="m859 518-11-22 2 1 10 21h-1z"/>
  <path fill="#C5C5C5" d="M733 430v-1h2l6-2 15-2c-7 2-14 7-23 5z"/>
  <path fill="silver" d="m623 629-4 26 1-17 3-9zm-9-118 10-13 4-4c0 4-9 15-14 17z"/>
  <path fill="#C5C5C5" d="m816 426 15 2 9 2c-9 2-16 0-24-4z"/>
  <path fill="#8D8D8D" d="m737 451-9 5c-4 3-9 4-13 6v-2a1000 1000 0 0 0 16-9h6zm73 5 5 5-21-9c6-3 10 2 16 4z"/>
  <path fill="#D5D5D5" d="m619 848 4 20c-6-5-5-12-4-20z"/>
  <path fill="#8D8D8D" d="m871 553-6-20h1l4 9 2 10-1 1z"/>
  <path fill="#848484" d="m757 425-16 2-6 2c8-5 16-7 25-5v1h-3z"/>
  <path fill="#CCC" d="m745 1055 3 1c-3 4-7 2-10 0l-4-4 9 2 2 1zm54-1 5-2c1 5-2 6-6 6l-9-1v-2h5l5-1zm105-17-1 5-5 5h-2c0-6 5-7 8-10z"/>
  <path fill="#848484" d="m905 466 2 3-1 20h-1v-23z"/>
  <path fill="#D5D5D5" d="m871 553 1-1c5 4 7 10 6 17l-6-14-1-2z"/>
  <path fill="#979797" d="M714 1041a481 481 0 0 1 14 10l-5-3-4-2-5-5z"/>
  <path fill="#D5D5D5" d="M889 609v-1l13 2h1c-3 2-5 3-8 3-1 1-3 0-4-1l-2-3z"/>
  <path fill="#A8A8A8" d="M904 489h2v13h-2v-13z"/>
  <path fill="silver" d="m644 1035-4-2-4-3-3-4 1-1 10 10z"/>
  <path fill="#CCC" d="m885 1056-12 5v-1c3-4 6-7 12-6v2z"/>
  <path fill="#D5D5D5" d="m624 881 5 16c-7-3-5-10-5-16z"/>
  <path fill="silver" d="m634 581-2 10v6h-2c-1-6-1-11 4-16z"/>
  <path fill="#CCC" d="m714 1041 5 5-1 1-13-10 8 4h1z"/>
  <path fill="#C5C5C5" d="M866 533h-1v-2l-6-11v-2h1c3 5 8 8 6 15z"/>
  <path fill="#848484" d="m848 430 14 4-12-2-2-1v-1z"/>
  <path fill="#D5D5D5" d="m630 906 5 14c-5-3-6-8-5-14z"/>
  <path fill="#C5C5C5" d="m850 432 12 3h2v1c-5 1-10 2-14-4z"/>
  <path fill="#8D8D8D" d="m696 475-1-1 10-8h3l-12 9z"/>
  <path fill="#848484" d="M657 467h-2l12-9-10 9z"/>
  <path fill="#9F9F9F" d="M885 1056v-2l2-1 9-6h2l-13 9z"/>
  <path fill="#979797" d="M669 996a200 200 0 0 1 8 12l-2-1-5-5v-2l-1-4z"/>
  <path fill="silver" d="M643 556v4h-2c0-4 0-9 5-11l-3 7z"/>
  <path fill="#C5C5C5" d="m844 490-2-4-2-2-1-2v-2c5 1 5 5 6 9l-1 1z"/>
  <path fill="silver" d="m628 603-3 11c-3-5 2-7 3-11z"/>
  <path fill="#979797" d="m677 1008 8 8h-4l-4-6v-2z"/>
  <path fill="#C5C5C5" d="M708 466h-3c1-5 6-5 9-6v2h-1a25 25 0 0 0-5 4z"/>
  <path fill="#D5D5D5" d="m646 956 6 10c-5-1-5-5-6-10zm235-513 9 4c-5 3-6-3-9-4z"/>
  <path fill="#CCC" d="M764 1057h7c-1 5-3 2-6 1l-1-1z"/>
  <path fill="#D5D5D5" d="m657 980 6 9c-5-1-5-5-6-9zm211-542c3 0 5 1 8 3-4 2-6 0-8-3z"/>
  <path fill="#979797" d="m713 1040-8-3-1-2 9 5z"/>
  <path fill="#646464" d="m870 1062-9 5 1-2 2-1 6-2z"/>
  <path fill="#CCC" d="m895 1047-8 6c0-5 5-5 8-6z"/>
  <path fill="#D5D5D5" d="m669 996 1 4-6-7 4 1 1 2z"/>
  <path fill="#C5C5C5" d="m835 477-1-2-1-2c4 0 5 3 5 6l-3-2z"/>
  <path fill="#D5D5D5" d="m641 943 4 8c-5-1-4-4-4-8z"/>
  <path fill="silver" d="m870 1062-6 2v-1l2-2 7-1v1l-1 1h-2z"/>
  <path fill="#D5D5D5" d="m636 930 3 7c-4-1-5-3-3-7zm17 41 4 7c-3-1-5-3-4-7z"/>
  <path fill="#C5C5C5" d="m722 455-7 5c0-5 3-4 7-5zm89-31v1l-7-1h7z"/>
  <path fill="#D5D5D5" d="m670 1002 5 5-5-5z"/>
  <path fill="#CCC" d="m954 741-5 4c0-3 1-4 5-4z"/>
  <path fill="#C5C5C5" d="M760 425v-1h6l-6 1z"/>
  <path fill="#D5D5D5" d="m896 450 5 5-5-5z"/>
  <path fill="#CCC" d="m723 1048 5 3c-3 2-4 0-5-3z"/>
  <path fill="#8D8D8D" d="m835 477 3 2 1 1v2l-4-5z"/>
  <path fill="#CCC" d="m773 1058 4-1-4 1z"/>
  <path fill="#C5C5C5" d="m850 497-2-2-1-2v-2l3 6z"/>
  <path fill="#CCC" d="m866 1061-2 2-1-2h3z"/>
  <path fill="#D5D5D5" d="m681 1016 4 1 1 2-5-3zm22 18c-2 1-5 2-4-2h2l2 2z"/>
  <path fill="#8D8D8D" d="m833 473 1 2-4-3h2l1 1z"/>
  <path fill="#D5D5D5" d="M618 831h1v4l-1-4zm74 196 3 2-3-2z"/>
  <path fill="#C5C5C5" d="m731 451-3 2 3-2z"/>
  <path fill="#D5D5D5" d="m687 1021 2 2-2-2z"/>
  <path fill="#8D8D8D" d="M847 491v2l-3-3h1l2 1z"/>
  <path fill="#848484" d="m702 439-1 2h-3l4-2z"/>
  <path fill="#C5C5C5" d="M740 450v1h-3l3-1z"/>
  <path fill="#CCC" d="m948 745-3 2 3-2z"/>
  <path fill="#C5C5C5" d="M848 430v1h-3l1-1h2z"/>
  <path fill="silver" d="m626 621-2 2v-2h2z"/>
  <path fill="#D5D5D5" d="M637 924h-1l-1-2h1l1 2z"/>
  <path fill="silver" d="m636 577 1 2h-2v-2h1z"/>
  <path fill="#D5D5D5" d="M677 1008v2l-2-3 2 1z"/>
  <path fill="#979797" d="m764 1056 1 2h-3v-1l2-1z"/>
  <path fill="#D5D5D5" d="m901 455 2 3-2-3z"/>
  <path fill="#8D8D8D" d="M800 1078v2h-2v-2h2z"/>
  <path fill="#D5D5D5" d="M617 671v2-2zm6 199 1 2-1-2z"/>
  <path fill="#979797" d="M789 1055v2l-2-1 2-1z"/>
  <path fill="silver" d="m1168 1075-2-1h-2c-10-2-20-6-29-11-8-3-16-7-22-12l-25-20c-13-11-23-24-32-38h3l13 17 9 10 14 14 11 9 12 9 11 6 17 7 9 4 5 2c8-1 15 2 22 6h-6l-8-2z"/>
  <path fill="#C5C5C5" d="M1064 757a512 512 0 0 1-1 29l-2-3-2-32 3-30 2 4v16c-2 6-3 11 0 16zm4-111h1v9l-1 3v4l-1 2v3l-1 2v4l-1 4v5l-1 33-1 1-1-5 1-47 5-18z"/>
  <path fill="#9F9F9F" d="m997 800-2-4-1-34 1-58 1-3 1 22-1 53 1 2v22z"/>
  <path fill="#D5D5D5" d="M1345 1036v3h-3l1-35v-18l2-18 2 7v11l-1 21-1 9v20z"/>
  <path fill="#CCC" d="M1086 927h1v2l12 33h2v1l3 6v2l3 4v1l2 2v2a28 28 0 0 0 4 6l1 4-5-3-6-11-7-18-9-20-2-11h1z"/>
  <path fill="silver" d="M1251 1079h-18l-11 2-14-1h-6l-10-1v-1l2-1 57 1v1z"/>
  <path fill="#C5C5C5" d="M1065 806v11l4 30v4c-2-4-5-9-6-14a538 538 0 0 1 2-31z"/>
  <path fill="#CCC" d="m997 778-1-2a2584 2584 0 0 1 1 2z"/>
  <path fill="#9F9F9F" d="M1020 589v-3a1498 1498 0 0 1 14-27l-1 1-7 16-6 13z"/>
  <path fill="#CCC" d="M1284 1019c8-14 15-28 21-44l-1 8c-1 3-3 5-3 8-2 7-7 13-10 20l-2 5-5 3z"/>
  <path fill="#C5C5C5" d="M1070 642v1h-1c-2-12-2-24 6-34v5l-1 2-1 5-1 2v4l-1 3v4l-1 8z"/>
  <path fill="#CCC" d="m1312 953 2-8a128 128 0 0 0 2-13l6-18v11a127 127 0 0 1-10 28z"/>
  <path fill="silver" d="m1291 1071-2 2-4 1h-5l-7 2h-2l-4 2h-11c6-2 11-5 17-6l18-1z"/>
  <path fill="#C5C5C5" d="m1076 885-1 1c-7-10-8-20-6-32h1l1 5a503 503 0 0 0 5 26z"/>
  <path fill="#D5D5D5" d="m1189 448 5-4a542 542 0 0 1 32 4c-13-3-25-3-37 0z"/>
  <path fill="#A8A8A8" d="M1189 448c12-3 24-3 37 0l3 2-10-1c-11-2-22-1-33 1l3-2z"/>
  <path fill="#CCC" d="M1147 1028v2l-8-5a181 181 0 0 1-13-17l2 1 3 3 3 3 3 4 4 4 6 5z"/>
  <path fill="#9F9F9F" d="m1061 510 11-17 11-10-6 8-16 19z"/>
  <path fill="#CCC" d="M998 819v-4c1 4 4 7 4 11l1 20h-2v-3l-3-24zm0-132v-3l1-3 4-21-1 20-4 7z"/>
  <path fill="#C5C5C5" d="m1077 603-1 4v-12c0-4 3-7 5-10l-1 6-3 12z"/>
  <path fill="#9F9F9F" d="M1003 660z"/>
  <path fill="#A8A8A8" d="m1163 460-1 1-15 10-2 2h-3c6-8 15-13 24-17l-3 4z"/>
  <path fill="#C5C5C5" d="M1075 888h1v3a261 261 0 0 0 6 18l-1 2c-3-7-9-14-6-23z"/>
  <path fill="#CCC" d="m1322 907 5-15 1-3c1 5 1 11-2 16-2 1-2 4-3 6l-2-2 1-2z"/>
  <path fill="#ADADAD" d="M1113 456h2l-8 7-8 7-3 1 17-15z"/>
  <path fill="#9F9F9F" d="M1003 650v-6l5-18c0 6 1 13-3 19l-2 5z"/>
  <path fill="#ADADAD" d="m1273 428 1 1-5 1-15-4-3-1v-1h3l18 3 1 1z"/>
  <path fill="#848484" d="m1321 909 1 2v3l-6 18 1-10 4-13z"/>
  <path fill="#CCC" d="m1123 1002 3 4v2c-6-4-10-9-11-16l3 2 1 2 4 6z"/>
  <path fill="#ADADAD" d="m1290 513-1-1-6-15 3 3 8 18-4-5z"/>
  <path fill="#9F9F9F" d="m1008 874-5-20c2 6 6 12 5 20z"/>
  <path fill="#CCC" d="m1306 973 2-8 3-10c2 7 0 13-5 18z"/>
  <path fill="#A8A8A8" d="m1238 455-2-3 2-1 16 11-15-7h-1z"/>
  <path fill="#D5D5D5" d="m1307 1067-12 3 3-4h12v1h-3z"/>
  <path fill="#CCC" d="M1154 1036h2l11 9 2 1c-4 1-14-6-15-10z"/>
  <path fill="#9F9F9F" d="m1014 607 1-8 4-8-1 9-4 7z"/>
  <path fill="#C5C5C5" d="M1086 927h-1c-2-4-7-8-4-14l5 14z"/>
  <path fill="#ADADAD" d="M1269 478h-1l-2-5c5 3 9 7 11 13h-2l-1-1-5-7z"/>
  <path fill="#9F9F9F" d="m1009 623 4-14c2 5-1 9-4 14zm11 294zm-6-19z"/>
  <path fill="#D5D5D5" d="m1348 959 1 3-1 2h-2l1-9 1 4z"/>
  <path fill="#ADADAD" d="m1322 606-5-12 5 12z"/>
  <path fill="#D5D5D5" d="m1254 427 15 3c-5 1-11 1-15-3z"/>
  <path fill="#ADADAD" d="M1346 964h2l1 11h-2l-1-7v-4zm-41-416-6-10v-2c5 3 6 7 6 12z"/>
  <path fill="#9F9F9F" d="M1026 934c-3-4-5-8-6-13 3 4 5 8 6 13zm6 15c-3-4-5-8-6-13 5 3 5 8 6 13z"/>
  <path fill="#ADADAD" d="m1311 568-5-13 2 2a3826 3826 0 0 0 3 11z"/>
  <path fill="#848484" d="M1065 793h-2v-6l1-6 1 12z"/>
  <path fill="#A8A8A8" d="m1177 451-9 6 9-6z"/>
  <path fill="#848484" d="m1085 572-3 12-1-3 4-9z"/>
  <path fill="#ADADAD" d="m1118 454 9-6-9 6z"/>
  <path fill="#9F9F9F" d="m1049 528 5-10-5 10z"/>
  <path fill="#D5D5D5" d="M1175 431z"/>
  <path fill="#9F9F9F" d="m1037 959-5-8 5 8zm47-477 7-7v1l-7 6z"/>
  <path fill="#ADADAD" d="m1127 448 9-5c-2 4-5 5-9 5z"/>
  <path fill="#848484" d="m1118 994-3-2-1-2-1-4 5 8zm-55-278h1v9l-1-4v-5z"/>
  <path fill="#9F9F9F" d="m1043 538 4-7c2 4-2 5-4 7zm1 435-5-8 5 8z"/>
  <path fill="#CCC" d="m1147 1030 6 4 1 2c-4 0-6-1-7-6z"/>
  <path fill="#ADADAD" d="m1299 530-4-7 4 7z"/>
  <path fill="#CCC" d="m1329 887 6-6-6 6z"/>
  <path fill="#9F9F9F" d="m1049 981-5-7 5 7z"/>
  <path fill="#D5D5D5" d="m1311 564-3-7c4 1 4 4 3 7z"/>
  <path fill="#9F9F9F" d="m1056 517 3-6-3 6z"/>
  <path fill="#A8A8A8" d="M1259 466h-3l-1-3 4 3z"/>
  <path fill="#9F9F9F" d="m1053 987-4-5 4 5zm-55-173-1-5 1 5zm11 67-2-5 2 5zm-8-35h2v4l-2-4zm-4-154v-4 4z"/>
  <path fill="#848484" d="M1192 1078v1h-4l4-1z"/>
  <path fill="#ADADAD" d="M1091 476v-1c1-1 1-2 3-2l-3 3zm251 564 2-1v2l-2-1z"/>
  <path fill="#A8A8A8" d="m1262 470-1-2 3 2h-2z"/>
  <path fill="#848484" d="M1251 1079v-1h2l-2 1z"/>
  <path fill="#ADADAD" d="m1300 534-1-2 1 2z"/>
  <path fill="#A8A8A8" d="m1182 450-2 1 2-1z"/>
  <path fill="#D5D5D5" d="M1347 939h1v1l-1-1z"/>
  <path fill="#FEFEFE" d="M493 606v2c-5 1-10 5-15 1l-2-2-2-2v-3c1-8-1-15-6-21l-1-3c1-5 2-10-3-13l-1-4c-1-6 0-12-5-16l-1-5c0-6-2-10-7-13v-2c2-7-3-10-6-14v-3l-4-6-6-12-9-13-14-14-10-7-7-4-1-1-28-7c-6-1-14-1-19 2-7 4-16 2-23 8-3 3-9 4-13 7-5 2-9 6-13 9l-19 19-14 21a101 101 0 0 0-13 27l-14 34v3l-1 3v3h-1l-1 1c-4 2-5 5-3 9l1 3-1 4v1l-6 27-5 13v10l1 5-1 5-1 9v4l-2 2c-5 11-3 22-4 32v83c0 12 2 24 4 35l2 2v4l1 8v9c-2 9 0 16 5 22v4l-1 2c0 7 1 13 4 19 4 8 2 18 7 26 2 4 0 10 5 14l1 4 3 10 3 7 3 7 3 5 7 16 11 18 11 13 6 6c0 3 1 5 4 4l3 2c1 2 2 5 4 6a373 373 0 0 0 30 21c5 1 10 1 14 5l4 1h34l6-1c6-6 15-2 20-10h2l13-8 14-15 9-12 10-21c3-6 6-13 7-20 1-10 8-19 7-30l2-2 2-5c1-8 0-16 6-23v-1c0-8 2-14 5-21 3-6 5-8 11-7 2 4 4 8 4 12l-1 21v80l1 5 1 10a465 465 0 0 1-3 28c-2 7-5 14-13 17-2 0-3 3-4 4l-2 1-10 2-9 3c-7 1-12 3-16 7h-2c-12-3-22 3-33 5v1h-7l-8-1h-33l-8 1h-15c-4-3-7-5-11-6h-14l-11-7-18-7h-1l-14-10-5-1-1-1-3-2-2-1-7-8-25-25-14-19-12-20-3-1-2-4-6-10v-2c-1-4-1-8-5-10v-1l-1-2-1-4-4-7-1-5c0-6-2-9-5-13v-2c0-7-2-12-6-17v-2l-1-4v-2c1-6-1-10-4-14v-2l-1-4v-9c2-6 0-10-4-13l-1-2-1-6 1-6-1-13v-4l1-4-3-31-2-2v-11c1-2 2-4-1-5l-1-2a1067 1067 0 0 0 3-32l3-22v-14l1-5v-19l1-4c4-4 6-8 4-13l-1-5 1-1v-1l1-2v-3c6-5 7-10 5-16v-6c4-4 6-9 6-16v-2c2-4 6-6 4-11l2-7 4-6 5-8 2-8v-2l5-9 2-4 3-6 1-2 10-15 2-3 5-7 6-8 11-10 27-26 21-15c4-3 10-5 16-7h1c5-4 11-5 16-7 6-3 12-3 18-5 18-7 37-5 55-5l19 1c4 4 9 5 14 4h7l3-1h2c6 5 12 7 19 8l7 2 7 3 9 4 6 2c3 3 6 6 7 9l3 30 1 37 2 4v18l-1 2 1 58z"/>
  <path fill="#CCC" d="M495 882c-6-1-8 1-11 7-3 7-5 13-5 21v1c-6 7-5 15-6 23l-2 5-2 2c1 11-6 20-7 30a209 209 0 0 1-17 41l-9 12-14 15-13 8h-2c-5 8-14 4-20 10l-6 1a2264 2264 0 0 1-38-1c-4-4-9-4-14-5-4-1-7-4-11-6l-19-15-5-6a233 233 0 0 1 20 15l12 7c12 6 25 9 38 9 12 0 24-2 35-6 14-6 25-15 34-27 10-13 17-28 22-44l9-25 8-33c4-13 5-26 11-37 3-5 7-4 12-4v2zm-276-57-2-2c-2-11-4-23-4-35v-83c1-10-1-21 4-32l2-2-1 11v7l-1 10v10l-1 10v56l1 16v8l1 3v5l1 2v16zm63 187-11-12-11-18-7-16-3-5-3-7-3-7-3-10-1-4c-5-4-3-10-5-14-5-8-3-18-7-26-3-6-4-12-4-19l1-2 3 12 1 2 2 8 7 27c4 11 7 23 12 34 9 19 18 38 32 55v2z"/>
  <path fill="#C5C5C5" d="M495 882v-2c6 4 7 10 8 16l-1 15v20l-1 13v18a1444 1444 0 0 1-2 38l-1-5v-80l1-21c0-4-2-8-4-12zm-299 88 3 1 12 20 14 19 25 25 7 8-11-7c-13-12-25-26-35-40-6-8-10-17-15-26zm67 78h5l14 10h1l18 7 11 7a65 65 0 0 1-13-5c-13-4-26-10-36-19zm89 30 8-1 33 1v1l-14 1h-19l-7-1-1-1zm91-6c4-4 9-6 16-7l9-3 10-2a266 266 0 0 1-35 12zm-35 6v-1c11-2 21-8 33-5l-5 2-2 1h-3l-7 1h-2l-3 1-11 1zm73-19c0-1 1-4 3-4 8-3 11-10 13-17l2-2-1 7-1 3c-3 7-9 11-16 13z"/>
  <path fill="#CCC" d="M225 868c-5-6-7-13-5-22h2v3l1 3v2l1 2 1 12z"/>
  <path fill="#C5C5C5" d="m315 1073 11-1 11 5h-8l-2-1-3-1-5-1-4-1z"/>
  <path fill="#CCC" d="M220 648v-10l5-13v7l-2 3-3 13z"/>
  <path fill="#ADADAD" d="M220 648z"/>
  <path fill="#979797" d="M502 931z"/>
  <path fill="#A8A8A8" d="M165 893c4 5 6 10 6 17-3-5-5-11-6-17z"/>
  <path fill="#979797" d="M360 1080zm141-118zM217 791z"/>
  <path fill="#A8A8A8" d="M170 912c4 4 6 7 6 13l-6-13z"/>
  <path fill="#CCC" d="m288 1018-6-5v-1l2 1 4 5z"/>
  <path fill="#ADADAD" d="M234 581h1l-3 12-1-3 3-9z"/>
  <path fill="#CCC" d="m220 837-1-8 1 8z"/>
  <path fill="#A8A8A8" d="m188 956 6 10-6-10zm-5-11c4 1 4 5 5 9l-5-9z"/>
  <path fill="#979797" d="M499 1000h1v10l-1-10zM217 709v-10 10zm-1 20v-10 10z"/>
  <path fill="#A8A8A8" d="m177 930 4 7-4-7z"/>
  <path fill="#CCC" d="M220 667v-9 9zm72 355c-3 2-4 0-4-3l4 3z"/>
  <path fill="#979797" d="M393 1080v-2h8l-8 2zm31-4 7-1-7 1zM218 689v-6 6zm101 385 5 1-5-1z"/>
  <path fill="#8D8D8D" d="m314 1040-4-3 4 3z"/>
  <path fill="#979797" d="M352 1078v1h-4l4-1zM218 802l-1-3 1 3zm4 44h-2v-3l2 3z"/>
  <path fill="#8D8D8D" d="M373 449h3-3z"/>
  <path fill="#979797" d="m223 852-1-3 1 3zm196 226 3-2-3 2z"/>
  <path fill="#C5C5C5" d="m259 1045 3 1-3-1z"/>
  <path fill="#ADADAD" d="M237 577v-3 3z"/>
  <path fill="#979797" d="M284 1012h-2v-2l2 2zm-65-203-1-2 1 2z"/>
  <path fill="#8D8D8D" d="m347 450 2-1-2 1z"/>
  <path fill="#979797" d="m434 1075 2-1-2 1zm19-5 2-1-2 1zM219 818v-2 2z"/>
  <path fill="#A8A8A8" d="m182 941 1 2-1-2z"/>
  <path fill="#979797" d="M327 1077h2-2zm-98-191-1-2 1 2zm269 160v-2 2zM224 856l-1-2 1 2zm75 212h2-2z"/>
  <path fill="#8D8D8D" d="m353 449 2-1-2 1zm13-1h2-2z"/>
  <path fill="#D5D5D5" d="M231 598v-1l1 1h-1z"/>
  <path fill="#ADADAD" d="M236 580v-1l1 1h-1z"/>
  <path fill="#9F9F9F" d="M997 819z"/>
  <path fill="#848484" d="M1222 1081zm51-5 7-2-7 2zm-105-1 7 2-7-2zm34 5h5-5zm65-2 4-2-4 2zm-5 0h3-3zm-98-4h2-2zm119 0h2-2z"/>
  <path fill="#646464" d="m778 727 5-2h158l7 2-4 1H780l-2-1z"/>
  <path fill="#848484" d="m817 1046 9-6-9 6z"/>
  <path fill="#8D8D8D" d="m777 727 3 1-9 3 6-4zm167 1h4l3 2-7-2zm-125 24h-6v-1l6 1zm-15-3-5 1v-1h5zm7 2h-5v-1l5 1z"/>
  <path fill="#646464" d="m798 748 1 2-3-1 2-1zm8 2v1l-2-1h2zm7 1v1l-2-1h2z"/>
  <path fill="#8D8D8D" d="M843 994v-2 2z"/>
  <path fill="#848484" d="M908 606v-29h1c1 10 3 20-1 29zm-1-37v-16l1-11 1 6-1 21h-1zm-1-36v-26l2 3-1 23h-1z"/>
  <path fill="#A8A8A8" d="M906 533h1l1 9-1 11-2-3 1-17z"/>
  <path fill="#848484" d="M891 613h4c3 0 5-1 8-3l4-3c0 5-3 7-7 9-3 1-7 0-9-3z"/>
  <path fill="#A8A8A8" d="M907 569h1v15l-1-15z"/>
  <path fill="#8D8D8D" d="m859 520 6 11-6-11zm-43-58 6 3-6-3zm-107 3 4-3-4 3zm131 19 2 2-2-2zm-14-15 2 1-2-1z"/>
  <path fill="#646464" d="M907 936v-4 4zm-1 28v-4 4z"/>
  <path fill="#9F9F9F" d="m907 919-1-3 1 3zm-1 42v-2 2z"/>
  <path fill="#646464" d="M907 922v-1 1zm0-115v-1 1z"/>
  <path fill="#848484" d="m907 805-1-1h1v1zm0 189-1-1h1v1z"/>
  <path fill="#9F9F9F" d="M907 993h-1v-1l1 1zm0-95-1-1h1s-1 0 0 0v1z"/>
  <path fill="#646464" d="m907 965-1-1h1v1z"/>
  <path fill="#9F9F9F" d="M907 964h-1v-1l1 1z"/>
  <path fill="#848484" d="M906 942h1v1l-1-1zM726 429a107 107 0 0 1-22 9v-1l22-8z"/>
  <path fill="#646464" d="m555 648-2 9 2-9z"/>
  <path fill="#848484" d="m680 450-5 3 5-3zM559 629l-1 5 1-5zm137-188-4 2 4-2zm-5 2-4 3 4-3zM555 855l-2-6 2 6z"/>
  <path fill="#646464" d="m548 802-1-4 1 4z"/>
  <path fill="#848484" d="M628 1020v1l-3-2 3 1z"/>
  <path fill="#646464" d="m549 809-1-3 1 3zm2 14-1-3 1 3zm-1-8-1-2 1 2z"/>
  <path fill="#848484" d="m561 886-1-2 1 2zm-5-27-1-2 1 2z"/>
  <path fill="#D5D5D5" d="m440 502 4 6-4-6z"/>
  <path fill="#646464" d="M407 424zm-82 4z"/>
  <path fill="#D5D5D5" d="M420 430c-5 1-10 0-14-4l14 4z"/>
  <path fill="#646464" d="m284 445 6-5-6 5zm-14 8 2-2-2 2zm277 253v-6 6zm2-15v-3 3zm2-15v-2 2zm-3 20v-2 2zm181 382c-5 2-8-2-12-3l12 3zm46 3-9 1 2-1h7zm14-1-9 1v-1h9z"/>
  <path fill="#8D8D8D" d="M780 1080v1h-6l6-1z"/>
  <path fill="#646464" d="m661 1050-5-2v-2l5 4z"/>
  <path fill="#8D8D8D" d="m768 1080-2 1h-3v-1h5z"/>
  <path fill="#646464" d="M763 1080v1h-5l5-1zm-84-19-4-2 4 2zm-15-8-1-2 3 2h-2z"/>
  <path fill="#848484" d="M1064 757c-3-5-2-10-1-15l1 15zm1-75v-5 5zm3-20v-4 4zm-2 11v-4 4zm3-18v-3 3zm-2 12v-3 3zm25-113-1 3 1-3zm-2 5-1 2 1-2zm-3 6v2-2zm14-33v2-2zm114 524v-1l24-5c-7 5-15 7-24 6zm-31-5a248 248 0 0 1 22 4c-8 2-15 0-22-4zm66-4zm-75 1 7 2-7-2zm67 3 7-4-7 4z"/>
  <path fill="#D5D5D5" d="M450 527c5 3 7 7 7 13l1 5c5 4 4 10 5 16l1 4c5 3 4 8 3 13l-7-21-10-30zm17 54c6 6 8 13 7 21l-7-21z"/>
  <path fill="#CCC" d="M478 609c5 4 10 0 15-1l-2 4c-4 1-8 4-11 0-1 0-2-1-2-3z"/>
  <path fill="#D5D5D5" d="M444 511c3 4 8 7 6 14l-6-14z"/>
  <path fill="#CCC" d="m474 605 2 2-2-2z"/>
  <path fill="#848484" d="M1077 603zm-4 18 1-5-1 5zm-1 6v-4 4zm-1 7v-4 4zm4-20v-2 2zm26 348h-2a1168 1168 0 0 1 2 0zm4 7-4-6 4 6zm18 33-4-6 4 6zm-16-27-3-4 3 4zm5 9-3-4 3 4zm14 24v-2l2 2h-2zm8 7-2-2h2v2zm-25-37-2-2 2 2zm238-3h1a403 403 0 0 1-1 26v-26zm-1 41v-9h2v6a328 328 0 0 1-1 17l-1-14z"/>
  <path fill="#4A4A4A" d="m1349 1013-1-6-1-6h2v12zm-2 17h1v7l-1-1v-6z"/>
  <path fill="#979797" d="m799 1054-5 1v-1h5z"/>
  <path fill="#848484" d="M794 1054v1h-2l2-1z"/>
  <path fill="#979797" d="M745 1054h-2 2zm-42-20-2-1 2 1z"/>
  <path fill="#CCC" d="M494 528c-1-1-3-2-3-4l-1-37-3-30c-1-3-4-6-7-9l1-1 9 9-1 1c5 11 2 22 3 33l1 3 1 35z"/>
  <path fill="#8D8D8D" d="M493 546v-14l2 14h-2z"/>
  <path fill="#646464" d="M830 1075c-3 2-7 3-11 3v-2h7l2-2h2v1z"/>
  <path fill="#8D8D8D" d="M830 1075v-1h2v1h-2zm-11 1v2h-2l2-2z"/>
  <path fill="#646464" d="M832 1075v-1h2l-2 1z"/>
  <path fill="#8D8D8D" d="m828 1074-2 2 2-2z"/>
  <path fill="#646464" d="m456 435 5 1-5-1zm15 6 4 2-4-2z"/>
  <path fill="#D5D5D5" d="m149 775 2 2a2395 2395 0 0 1 2 34l-3-21-2-3v-7l1-5z"/>
  <path fill="#A8A8A8" d="m148 787 2 3 3 22a21 21 0 0 1 0 9l-3-13-2-21z"/>
  <path fill="#D5D5D5" d="m152 822 1-5 1 12-1-2-1-5z"/>
  <path fill="#848484" d="M1081 906z"/>
  <path fill="#D5D5D5" d="M153 689v14l-3 22-2-3 1-8 1-7 3-18z"/>
  <path fill="#A8A8A8" d="m153 689-3 18-1 7a428 428 0 0 1 3-32l1 2v5z"/>
  <path fill="#D5D5D5" d="m154 684-1-2v-6l1 8z"/>
  <path fill="#848484" d="M1076 882z"/>
  <path fill="#A8A8A8" d="m209 518-10 15a76 76 0 0 1 7-13l2-2h1zm7-10-5 6v-2l2-3 3-1z"/>
  <path fill="#646464" d="m210 512 1 2-2 4h-1l2-6zm-4 8-2 3 2-3z"/>
  <path fill="#ADADAD" d="M481 446v-1 1z"/>
  <path fill="#646464" d="M1272 427z"/>
  <path fill="#A8A8A8" d="m158 643 1 5-4 13-1 4 1-14 2-6v-2h1z"/>
  <path fill="#555" d="m176 576 2-3-2 3z"/>
  <path fill="#D5D5D5" d="M148 759c3 1 2 3 1 5h-1v-5z"/>
  <path fill="#A8A8A8" d="M159 871c4 4 6 8 5 14l-5-14z"/>
  <path fill="#9F9F9F" d="M907 774v-4 4zm0 7-1-2 1 2z"/>
  <path fill="#A8A8A8" d="m153 841 2 2 4 13v5l-6-16v-4z"/>
  <path fill="#D5D5D5" d="M165 620c2 6 1 11-5 16v-2l5-14zm-17 115v4l-1-4h1z"/>
  <path fill="#A8A8A8" d="M175 585c2 5-2 7-4 11h-1v-2l5-9z"/>
  <path fill="#848484" d="m1141 1023-4-4 3 1 1 3z"/>
  <path fill="#646464" d="M189 550v-2 2z"/>
  <path fill="#ADADAD" d="M1347 1030v5l-2 1v-20l2 14z"/>
  <path fill="#D5D5D5" d="m159 639 1 2-1-2z"/>
  <path fill="#646464" d="M906 942v-1c-1 0 0 0 0 0v1zm0-45v-1 1c1 0 0 0 0 0z"/>
  <path fill="#ADADAD" d="M1347 1001v6h-1l1-21v15z"/>
  <path fill="#D5D5D5" d="m155 661 4-13c2 5 0 9-4 13zm4 195-4-13c4 3 6 7 4 13zm75-275-3 9c-2-4-1-7 3-9z"/>
</svg>
