<?xml version="1.0"?><svg width="100" height="100" version="1.2" baseProfile="tiny-ps" viewBox="0 0 300 300" xmlns="http://www.w3.org/2000/svg" xmlns:xlink="http://www.w3.org/1999/xlink"><title>The Conscious Girls Club</title><g><g fill="#fefefe" transform="matrix(.1 0 0 -.1 0 300)"><path d="M1290 2985C623 2887 111 2374 15 1705L0 1605v-210l15-100C112 623 623 112 1295 15l100-15h210l100 15c672 97 1183 608 1280 1280l15 100v210l-15 100c-33 233-111 437-240 630-236 355-610 588-1040 650l-100 15-115-1-115-1-85-13z"/></g><g fill="#d3d3d3" transform="matrix(.1 0 0 -.1 0 300)"><path d="M1290 2985C623 2887 111 2374 15 1705L0 1605v-210l15-100C112 623 623 112 1295 15l100-15h210l100 15c672 97 1183 608 1280 1280l15 100v210l-15 100c-33 233-111 437-240 630-236 355-610 588-1040 650l-100 15-115-1-115-1-85-13zm-449-845c30-5 70-17 91-26l36-16 6-22c3-11 6-83 6-159v-139l-12 4-12 4-31 95c-41 120-56 149-100 187-42 38-71 46-131 39l-44-5-40-26-40-26-35-53c-40-61-66-129-91-242l-17-80-1-175v-175l27-105 27-104 27-56 27-55 50-51 51-50 45-12 45-11 35 8c50 11 73 25 108 66l31 35 25 82c14 46 30 102 36 126 11 41 24 54 32 30 2-7 2-82 0-166l-3-153-31-19-31-19-67-12-67-12-81 5-80 5-54 26-54 27-47 45c-57 57-98 127-131 225l-25 75-12 105-12 105 6 105 6 105 20 78 20 78 42 79 41 80 58 53c105 97 203 124 351 97zm891-15c26-9 51-22 56-28l10-12 3-149 4-149-12-4-12-4-11 43c-18 69-60 174-83 210l-22 33-45 23-44 22h-94l-53-28-53-27-41-61-41-60-27-84c-33-106-47-211-47-348v-107l14-90c7-50 24-124 37-165l23-74 41-61 40-60 48-29 48-29 52-4 52-4 45 23 45 23 12 25 13 25v503l-15 12-15 13-57 6-56 6-5 13-4 12h364l-4-12-4-12-33-7c-18-4-38-12-44-18l-12-12-5-282-5-281-39-22-39-22-65-13-64-12-82 5-81 6-50 23-50 23-56 56-56 55-36 75-36 75-16 80-17 80-5 121-6 121 12 83c7 45 22 112 33 149l20 66 36 60c47 78 92 126 150 164l48 30 54 16 55 15 90-4 90-5 47-16zm867 1c24-9 50-21 58-27l13-11v-310l-12 4-13 5-22 79c-13 43-35 103-49 131l-26 53-34 27-35 26-54 5-53 4-50-27-50-27-32-44c-37-52-65-114-92-203l-20-66-5-195-5-195 11-60c6-33 22-96 36-141l25-82 43-64 42-63 48-29 49-30h94l44 25 45 24 24 44c13 24 38 91 55 150l31 106 10-5 10-5-3-159-2-159-18-13c-9-7-50-21-90-30l-74-16-86 4-87 4-48 22-48 21-57 58-57 58-33 62-32 62-20 76c-11 42-24 123-30 180l-11 105 11 103 10 104 21 74 20 74 31 55c64 115 141 186 243 223l50 18 90-5 90-5 44-15z"/></g><g fill="#9d9d9d" transform="matrix(.1 0 0 -.1 0 300)"><path d="M1290 2985C623 2887 111 2374 15 1705L0 1605v-210l15-100C112 623 623 112 1295 15l100-15h210l100 15c672 97 1183 608 1280 1280l15 100v210l-15 100c-33 233-111 437-240 630-236 355-610 588-1040 650l-100 15-115-1-115-1-85-13zm-418-849c32-7 69-21 83-30l25-16v-310h-29l-26 88c-15 48-39 109-53 136l-26 48-31 24-31 23-42 7-42 7-44-17-44-17-42-45-42-46-28-61c-15-34-35-96-45-137l-17-75-6-147-5-146 13-99 12-98 24-77 24-76 41-62 42-61 39-26 38-26 49-5 48-4 46 20 46 20 27 41 27 42 32 112 31 112h29l3-146 3-146-10-26-10-26-68-21-68-21-95-1h-95l-60 23-60 22-60 61-60 61-33 65-32 65-20 80-21 80-9 101-9 102 10 93c5 52 18 128 30 169l20 74 37 70 36 70 51 51 51 52 44 23c65 33 87 38 170 39l75 1 57-14zm868-10c25-9 51-24 58-33l12-17v-297l-16 3-17 3-31 100-32 100-24 36c-13 20-38 46-55 58l-31 21-45 6-44 6-44-12-43-11-43-40-42-39-31-59-32-58-21-89-21-89-6-105-7-105 7-110c8-133 31-239 68-321l27-61 39-42 38-42 37-20 38-19h54c30 0 68 5 86 11l32 11 17 32 17 31 3 241 3 240-18 23-18 22-57 6-58 6v27l183-2 182-3-2-10c-2-5-18-14-35-18-18-5-39-13-45-19l-13-10V930l-19-19-20-20-68-21-68-21-86-1-85-1-56 17-55 18-48 36-49 37-42 62-43 63-30 93-30 93-11 104-12 105 7 95 7 95 19 75 19 75 39 80 40 80 47 48c52 53 113 92 177 113l42 14 105-4 105-4 45-16zm875-2 50-20 8-147c9-154 7-177-16-177h-14l-18 68c-24 89-56 160-90 201l-29 34-33 13c-38 17-65 17-114 4l-35-10-41-34-40-35-36-68c-74-142-105-384-77-613 27-221 103-375 211-431l38-19h40c111 0 163 60 211 245l27 100 16 3 17 3V920l-19-19-20-20-43-12c-24-6-74-15-113-19l-69-8-59 9c-32 5-80 19-105 31l-47 22-50 51-50 51-32 60c-17 33-44 100-58 149l-27 90-5 140-6 140 12 74c6 40 23 109 38 153l26 80 39 60c59 91 129 151 211 180l52 19 100-4 100-4 50-19z"/></g><g fill="#616161" transform="matrix(.1 0 0 -.1 0 300)"><path d="M1290 2985C623 2887 111 2374 15 1705L0 1605v-210l15-100C112 623 623 112 1295 15l100-15h210l100 15c672 97 1183 608 1280 1280l15 100v210l-15 100c-33 233-111 437-240 630-236 355-610 588-1040 650l-100 15-115-1-115-1-85-13zm-379-857 64-23 7-45c3-25 7-98 7-162l1-117-10-6-11-7-13 11-13 11-18 67c-23 86-65 170-103 206l-30 29-36 8-35 8-45-10-44-9-41-35-41-36-39-81-40-82-16-78-15-79-7-121-6-122 12-105c14-120 31-189 71-276l28-62 42-46 42-45 43-17 44-16 46 6 46 7 35 31c53 47 69 83 114 266l11 42h39V913l-17-15c-10-8-40-23-68-32l-50-17-92-6-91-6-66 23-66 24-47 39-48 39-42 61-42 62-30 90-30 91-12 94-11 95 5 105 6 105 21 80 20 80 35 72 36 72 51 56 51 56 45 26c24 15 68 32 96 40l51 13 71-5 71-4 64-23zm806 7c28-8 60-23 71-33l21-17 3-147 3-147-13-13-12-12-9 10c-5 5-23 54-40 110l-30 100-30 42-31 41-31 17-32 16-57 1h-58l-46-27-45-26-25-33c-14-18-38-62-55-97l-30-65-18-85-18-85v-370l18-85 18-85 33-71c18-38 47-86 65-106l32-37 43-20 42-21h109l33 20 32 20 10 26 10 25v499l-22 10c-13 5-44 12-70 15l-48 6-6 11-7 10 14 9 14 9h162c165 0 193-3 193-24v-12l-44-12-43-11-7-23c-3-13-6-140-6-284V923l-18-16c-10-9-45-26-78-38l-59-20-76-6-76-6-54 13c-170 40-281 172-334 400l-15 65-6 120-7 120 12 89c14 102 40 185 85 271l31 59 57 58 56 58 55 26c31 13 75 29 99 34l43 9 70-4c39-3 93-11 122-20zm871 0 53-16 20-20 20-20-3-152-3-152h-29l-35 106-36 106-27 41-28 41-32 17-33 17h-46l-45-1-32-16c-17-9-46-32-65-51l-34-35-30-63c-36-74-49-116-63-217l-11-75v-155l1-155 19-94 20-93 34-72c19-40 48-88 66-108l32-37 43-20 42-21h69l41 19 41 19 21 29c28 39 55 111 77 201l18 74 14 5 14 6 11-11 10-10-7-157-7-156-15-14c-8-8-40-23-71-32l-57-18h-210l-57 27-57 26-45 42c-83 77-143 198-172 350l-14 74-1 126v127l10 64c14 82 41 162 83 241l33 62 55 56 55 56 40 19c22 10 60 25 85 32l45 13 70-5c39-2 94-12 123-20z"/></g><g fill="#2c2c2c" transform="matrix(.1 0 0 -.1 0 300)"><path d="M1290 2985C623 2887 111 2374 15 1705L0 1605v-210l15-100C112 623 623 112 1295 15l100-15h210l100 15c672 97 1183 608 1280 1280l15 100v210l-15 100c-33 233-111 437-240 630-236 355-610 588-1040 650l-100 15-115-1-115-1-85-13zm-380-850c25-10 53-27 63-38l18-20-3-151-3-151h-37l-37 113c-42 124-60 155-112 190l-34 24-57-4-58-4-37-31c-21-16-52-48-69-70l-30-40-32-94-31-94-10-133-10-133 9-117 9-117 21-73c23-81 59-159 98-210l25-33 45-26 45-27 47 1 46 1 30 15c58 30 93 91 125 223l22 89 13 15 14 14 15-15 16-15-7-164-7-163-56-26-56-26H625l-63 34-64 35-45 50c-108 123-163 307-163 543l1 108 13 75 14 76 30 76c39 97 73 150 132 208l48 47 49 23c26 12 59 27 73 31l25 9 95-4 95-3 45-18zm835-6 60-24 6-65c9-88 10-235 3-254l-6-16h-29l-13 33c-8 17-17 48-21 67s-22 67-41 107l-34 72-44 26-43 25h-104l-37-19c-52-27-96-76-130-146-42-83-60-161-72-305l-11-123 11-131c13-156 30-226 75-316l34-67 47-42 47-41 40-11 41-11 39 6c22 4 52 13 67 21l28 14 11 32 11 32v475l-14 11c-8 6-36 14-64 18-27 3-56 9-62 13l-13 8 6 16 7 16 182-2 183-3v-39l-31-6c-17-4-36-10-42-14l-12-7v-253c0-140-3-268-6-286l-7-32-66-32-66-31h-250l-60 29-60 30-46 47-45 46-37 71-38 71-20 78-21 78-5 160-5 160 20 95 19 95 37 78 37 77 59 63 59 63 58 29c32 15 72 32 88 36l30 8 95-3 95-3 60-24zm820 16c33-9 71-24 85-34l25-18 7-149 6-149-10-12c-6-7-16-13-23-13h-13l-36 113-37 113-30 37c-17 21-44 44-59 52l-29 15h-82l-38-19c-79-41-142-146-178-297l-18-79 1-210 1-210 20-75c12-41 33-101 47-133l26-57 42-46c23-25 55-52 72-61l29-15h94l29 15c63 33 93 87 134 237 23 86 32 102 57 93l13-5V935l-13-24-12-24-50-20-50-21-130-1h-130l-55 30-55 30-49 50-49 49-43 91-43 90-17 80-17 80v160l1 160 21 80c11 44 37 112 56 152l36 72 51 56 51 56 44 26c25 14 61 32 81 39l37 13 70 1h71l59-15z"/></g><g fill="#030303" transform="matrix(.1 0 0 -.1 0 300)"><path d="M1312 2989c-41-6-125-23-187-39l-114-28-88-38c-369-158-649-438-807-807l-38-88-28-112c-16-62-34-160-41-217l-12-105 6-120 6-120 21-105C152 607 600 159 1210 29l105-23h370l105 23c610 130 1051 571 1181 1181l23 105v370l-23 105c-130 608-574 1053-1176 1180l-100 21-155 4-155 4-73-10zm-421-845 58-16 20-20 21-19v-317l-15-6-15-5-14 22c-8 12-26 60-40 107l-25 85-27 41-27 41-30 18-31 19h-46l-45 1-39-19-38-19-38-49-39-48-20-55c-11-30-30-99-41-154l-20-99v-290l20-102c31-152 71-240 136-302 36-33 93-58 136-58h32l42 20 42 21 15 23c16 24 57 138 82 229l16 58 22-3 22-3-1-168-1-167-17-19-17-19-57-15c-31-8-85-18-119-22l-63-6-62 11-63 12-48 26c-26 14-69 47-95 73l-47 47-38 70-37 70-21 78-21 79-5 157-6 157 18 96 17 95 43 88 42 87 43 48c51 58 119 106 174 123l41 13h84l85 1 57-16zm843-4 39-12 23-23 24-24v-299l-15-12-14-12-9 6c-6 3-24 50-41 103-17 54-42 116-54 138l-22 39-33 22-32 22-39 7-39 6-39-10c-57-16-101-49-140-105l-33-48-31-97-31-96-5-190-5-190 10-69c6-38 23-107 38-154l27-84 32-47 32-46 42-30 41-29 64-4 63-4 32 17 33 16 14 34 14 34v456l-10 15-9 15-63 10-63 10-3 19-4 19 14 8 13 9h331l18-13 17-13-6-15-6-15-42-10-42-9-5-281-5-281-13-15c-7-9-35-25-62-37l-49-21-74-10-75-11-68 11c-38 6-88 20-112 30l-43 19-60 60-59 60-36 74-35 75-20 93-19 94-7 102-6 102 12 78c7 43 21 112 32 153l20 75 41 69c69 118 151 189 251 222l42 14 110-4 110-4 39-12zm868 1c20-6 46-20 59-30l22-18 5-154 5-154-17-14-17-14-14 14-14 14-29 97-29 98-27 41-27 41-46 20-45 20-36-7c-135-25-219-166-253-420l-12-90 6-140 6-140 21-77c11-43 30-103 41-133l20-55 41-51 40-51 41-19 42-19h71l44 22 45 23 22 39c12 22 34 84 48 138 15 53 33 105 40 114l12 17 17-6 16-6V913l-22-20-23-21-55-15c-30-9-80-18-111-22l-55-6-68 11-68 11-38 19c-20 10-62 42-93 70l-55 50-41 79-41 79-22 88-22 89v170l-1 170 23 90 24 90 35 65c19 36 51 84 70 108l36 44 53 35c29 19 70 41 91 49l38 14 105-4 105-4 37-11z"/></g></g></svg>